<svg xmlns="http://www.w3.org/2000/svg" width="115.7" height="31.1" viewBox="0 0 115.7 31.1">
    <path fill="#FFF" d="M24.3 9.3c-.2-.7-.7-1.1-1.4-1.1v15.3s-2-.6-3.8-1.4c-2.1-.9-3.8.1-3.9.2-.2-.1-1.8-1.1-3.9-.2-1.8.8-3.8 1.4-3.8 1.4V8.1c-.6 0-1.2.5-1.3 1.1v15.5h18.1v-15-.2-.2z"/>
    <path fill="#FFF" d="M10.7 17.3c.4.8.9 1.5 1.4 2.1l3.1-3 3.1 3c.5-.7 1-1.4 1.4-2.1L15.2 13l-4.5 4.3zM21.8 8.1c0 .5-1.1.2-1.7.2-2.1 0-3.9-1.1-4.8-2.7-1 1.6-2.8 2.7-4.8 2.7-.6 0-1.1-.1-1.7-.2-.1 1.6 0 3.1.3 4.6h12.5c.2-1.5.3-3.1.2-4.6z"/>
    <g fill="#FFF" stroke="#FFF" stroke-width=".5" stroke-miterlimit="10">
    <path d="M41.8 12.8h-.2-.1-.1c-.2-.5-.4-.9-.7-1.2-.2-.3-.4-.6-.6-.8l-.6-.6c-.2-.1-.3-.3-.5-.4-.2-.1-.4-.2-.7-.2h-3.6c-.2 0-.3 0-.3.1 0 0-.1.1-.1.3v6h1.5c.2 0 .4-.1.6-.1.2-.1.4-.1.6-.2.2-.1.3-.2.4-.4.1-.1.2-.3.2-.5s.1-.3.1-.5.1-.3.1-.5 0-.3.1-.4h.5s.1 0 .1.1v6c-.1.1-.2.1-.3.1h-.1-.1c0-.1 0-.2-.1-.4 0-.2-.1-.4-.1-.6 0-.3-.1-.5-.3-.8-.2-.3-.4-.5-.7-.7-.1-.1-.3-.2-.6-.3-.3-.1-.7-.1-1.1-.1-.2 0-.4 0-.6.1v5.5c.1.4.2.7.4.9.2.2.3.4.5.5h.3c.2 0 .3 0 .5.1.2 0 .3 0 .5.1h.4c0 .1.1.2.1.3v.1s0 .1-.1.1H29.6c-.1-.1-.1-.2-.1-.3 0-.1 0-.2.1-.3.3 0 .7-.1 1.1-.1.4-.1.7-.1.9-.1.2-.2.3-.5.4-.8.1-.3.2-.7.2-1.3v-8.1V12s0-.6-.1-.7c0-.3-.1-.5-.2-.7-.1-.2-.3-.4-.5-.6-.1-.1-.3-.1-.7-.2-.4 0-.7-.1-1-.1 0-.1-.1-.2-.1-.3v-.1s0-.1.1-.1h12.2c0 .1 0 .1.1.1v.2l.2 3.3h-.4zM54.3 23.9v.3h-3c-.2 0-.3-.1-.4-.2s-.1-.3-.1-.5c0-.3-.1-.5-.2-.8-.1-.3-.1-.6-.2-.8s-.2-.5-.3-.8c-.1-.2-.2-.5-.3-.6-.2-.2-.3-.4-.6-.7-.2-.2-.5-.4-.8-.5-.2-.1-.4-.1-.7-.1h-1v2.9c0 .5.1.9.3 1.1.1.2.3.3.5.4s.5.1.8.1c.1.1.1.2.1.3v.1s0 .1-.1.1H42.9c0-.1 0-.1-.1-.2v-.1-.1s0-.1.1-.1h.4c.1 0 .3 0 .4-.1s.3-.1.4-.1.2-.1.2-.1c.1-.1.2-.2.2-.4s.1-.3.1-.5v-.3-.4-.4V17.7v-1.5c0-.4-.1-.7-.1-.8-.1-.3-.2-.6-.5-.7-.3-.2-.7-.3-1.3-.3v-.3-.1s0-.1.1-.1h7c.3 0 .6.1.9.1.7.2 1.2.5 1.5 1s.5 1 .5 1.6c0 .6-.2 1.2-.7 1.6-.4.5-1.2.7-2.3.9v.1c.4.1.7.2 1 .3.2.1.4.3.6.4.2.2.3.4.5.7s.3.6.5.9c.1.3.2.5.3.8l.3.9c0 .1.1.1.1.2.1.1.1.1.2.1h.2c.1 0 .2 0 .3.1.1 0 .2 0 .3.1s.2 0 .2 0c.1.1.1.1.1.2zm-3.9-7.5c0-.3 0-.5-.1-.7l-.3-.6c-.1-.2-.3-.3-.4-.4-.2-.1-.3-.2-.5-.2s-.4-.1-.7-.1h-.9c-.4 0-.6 0-.6.1-.1 0-.1.2-.1.3v3.8h1.6c.3 0 .6 0 .8-.1l.6-.3c.2-.1.3-.3.4-.5l.3-.6c-.1-.2-.1-.4-.1-.7zM61.3 23.9c0 .1 0 .2-.1.3h-5.5c0-.1 0-.1-.1-.1V24c0-.1 0-.2.1-.3.5-.1.9-.1 1.1-.2.2-.1.4-.2.5-.5 0-.1.1-.2.1-.5v-1-1-3.4-.7c0-.3 0-.5-.1-.9 0-.4-.2-.6-.5-.7-.3-.1-.7-.2-1.2-.2 0-.1-.1-.2-.1-.3v-.1s0-.1.1-.1H61c.1.1.1.2.1.3 0 .1 0 .2-.1.3-.3 0-.6.1-.9.1-.3 0-.5.2-.6.4 0 .1 0 .2-.1.3v6.4c0 .4 0 .9.1 1.2.1.4.2.6.6.7.1 0 .2 0 .5.1s.4 0 .6 0c0 .1 0 .1.1.1s0-.1 0-.1zM73.7 24.2c-.1 0-.2.1-.4.1h-9.9c0-.1-.1-.2-.1-.2V24v-.1c.4 0 .8-.1 1-.1.3-.1.5-.1.5-.2.1-.1.2-.3.2-.5s.1-.6.1-1.1v-.7-.8-1.3-1.6-1-.6c0-.3 0-.5-.1-.7-.1-.2-.2-.3-.3-.4-.1-.1-.3-.1-.5-.2s-.5-.1-.8-.1c0-.1-.1-.2-.1-.3v-.1c0-.1 0-.1.1-.1H72.6c.1 0 .1.1.1.2l.1 2.4c-.1 0-.1 0-.1.1H72.4c-.2-.3-.3-.5-.5-.7-.1-.2-.3-.3-.4-.5l-.3-.3c-.1-.1-.2-.2-.4-.3-.2-.1-.5-.2-.9-.3h-2.6v3.8h1.1c.2 0 .4-.1.5-.1l.6-.3c.2-.1.3-.3.5-.5 0-.1.1-.2.1-.4s.1-.4.1-.5c.1 0 .2-.1.3-.1.1 0 .2 0 .3.1 0 .2 0 .5-.1.9v3.5c-.1 0-.1 0-.1.1s-.1 0-.2 0h-.3c-.1-.4-.1-.8-.3-1.1s-.4-.5-.7-.7c-.2-.1-.4-.1-.6-.2s-.4 0-.6 0h-.6v2.7c0 .6 0 1 .1 1.2 0 .1.1.2.2.3.1.1.2.2.4.2h3c.2 0 .4-.1.5-.1.1-.1.2-.2.4-.3s.3-.3.5-.5.3-.4.5-.7c.1-.2.3-.5.3-.7.1 0 .1 0 .2-.1h.1c.1 0 .2 0 .3.1V24c0 .1 0 .2-.1.2zM88.2 14.1v.1s0 .1-.1.1c-.3 0-.5.1-.8.1s-.4.2-.6.4c-.2.2-.3.4-.4.7s-.2.7-.2 1.1v7.7c-.1.1-.1.1-.2.1h-.2s-.1-.1-.3-.2L78 16.3l.1 1.6v3.4c0 .2 0 .5.1.7 0 .3.1.6.2.7.1.2.2.3.3.4.2.2.4.3.7.3.3.1.5.1.7.1 0 .1.1.2.1.2v.1s0 .1-.1.2h-4.6v-.2-.1s0-.1.1-.2c.1 0 .3 0 .4-.1.2 0 .3-.1.5-.1.2-.1.3-.1.4-.2l.3-.3c.1-.1.1-.3.1-.5V18v-.8-.7c0-.5-.1-.9-.4-1.1l-.2-.2-.3-.3c-.1-.1-.3-.2-.5-.3s-.5-.2-.6-.2c0 0 0-.1-.1-.1s0-.1 0-.1c0-.1 0-.2.1-.3h3c.1.1.3.1.3.2L84 20c.2.2.4.5.7.8.2.3.4.5.6.7v-4.3-.7-.5c0-.4-.1-.8-.3-1.1 0-.1-.1-.1-.3-.2s-.3-.1-.5-.1-.3-.1-.5-.1-.3-.1-.5-.1c0-.1-.1-.2-.1-.3v-.2H87.9c.3 0 .3.1.3.2zM101.5 19.2c0 .5-.1 1-.2 1.5s-.4 1-.7 1.4c-.3.4-.6.7-.9 1-.3.3-.7.5-1.1.6-.4.2-.8.3-1.3.3-.5.1-1.1.1-1.7.1h-5.9c0-.1-.1-.2-.1-.3v-.1s0-.1.1-.2c.5 0 .9-.1 1.2-.2s.4-.2.5-.4c0 0 .1-.2.1-.4.1-.2.1-.6.1-1.1V19v-2.4c0-.5 0-.8-.1-1 0-.2 0-.3-.1-.5 0-.2-.1-.3-.2-.4-.1-.1-.3-.2-.5-.3-.2-.1-.6-.1-1-.1v-.2-.1c0-.1 0-.2.1-.3h5.7c.7 0 1.4.1 1.9.2.6.1 1.1.3 1.5.6.4.2.8.5 1.2.9.3.3.6.7.8 1.1.2.4.4.9.5 1.3.1.5.1 1 .1 1.4zm-2.2-.1c0-.9-.1-1.6-.4-2.2-.3-.6-.7-1.1-1.3-1.6-.4-.3-.9-.5-1.4-.7-.5-.2-1.1-.2-1.7-.2h-.4c-.1 0-.2 0-.4.1V21.9c0 .6.1 1 .3 1.2.2.2.3.3.5.4.2.1.4.1.6.1.7 0 1.3-.1 1.7-.3.5-.2.9-.5 1.3-1 .4-.4.7-.9.9-1.4.2-.5.3-1.1.3-1.8zM111.8 21.3c0 .5-.1.9-.3 1.3s-.5.7-.8 1c-.3.3-.7.5-1.2.6-.4.1-.9.2-1.4.2-.4 0-.9-.1-1.3-.2s-.8-.3-1.1-.4c0 0-.1 0-.2-.1h-.2c-.1 0-.2 0-.3.1-.1.1-.3.2-.5.3-.1 0-.2 0-.4-.1-.1-.1-.2-.1-.2-.2s0-.3.1-.6.1-.5.1-.7v-.3-.5-.5-.3c.1-.2.3-.2.5-.2h.2c.1.1.1.2.2.4s.2.4.2.6l.3.6c.1.2.2.3.3.5.3.4.7.7 1.1.8.4.2.8.3 1.2.3.8 0 1.4-.2 1.7-.5.2-.2.4-.4.5-.6.1-.2.1-.4.1-.6 0-.4-.1-.7-.3-.9-.1-.2-.3-.3-.4-.4-.1-.1-.4-.2-.7-.4-.1-.1-.3-.1-.5-.2s-.5-.1-.7-.2c-.3-.1-.5-.2-.8-.3s-.5-.2-.6-.3c-.4-.2-.6-.3-.9-.5-.2-.2-.4-.3-.6-.5-.2-.3-.4-.6-.5-.9s-.1-.7-.1-1c0-.4.1-.8.2-1.2.2-.4.4-.7.7-.9s.6-.5 1-.6c.4-.1.8-.2 1.3-.2.4 0 .8 0 1.2.1.4.1.9.3 1.3.6l.3-.3.3-.3c.2 0 .3 0 .4.1.1.1.2.1.2.2s0 .3-.1.6-.1.6-.1.8v.3c0 .2 0 .3.1.5 0 .2 0 .3.1.5v.3c-.1 0-.1.1-.2.1s-.1.1-.2.1h-.2c-.2-.3-.3-.6-.4-.9-.1-.4-.3-.7-.5-.9-.2-.3-.5-.6-.9-.7-.3-.1-.7-.2-1.2-.2s-1 .1-1.3.4-.6.7-.6 1.1c0 .4.1.8.4 1 .3.2.6.4.9.5.2.1.5.2.7.3.3.1.5.2.9.3.8.3 1.4.5 1.7.6.6.3 1 .7 1.3 1.1.1.3.2.8.2 1.4z"/></g></svg>