<svg xmlns="http://www.w3.org/2000/svg" width="487.103" height="26.916" viewBox="0 0 487.103 26.916"><g fill="#F58025"><path d="M25.412 5.148v-.119h-.029c-.216-.793-.975-1.383-1.881-1.383v1.383h-.003l.048 19.975s-2.815-.91-5.357-2.016c-2.939-1.281-5.289.111-5.504.246v.016l-.012-.008-.01.008v-.016c-.215-.134-2.564-1.527-5.504-.246-2.543 1.105-5.357 2.016-5.357 2.016L1.85 5.029h-.01V3.543c-.896 0-1.641.641-1.806 1.486H.002v.318a.437.437 0 0 0 0 .073v21.496h25.41V5.828a1.727 1.727 0 0 0 0-.68z"/><path d="M6.393 16.32a22.79 22.79 0 0 0 2.014 3.004l4.311-4.193 4.323 4.203a22.875 22.875 0 0 0 2.011-2.996l-6.334-6.096-6.325 6.078zM21.855 3.436a8.087 8.087 0 0 1-2.35.348c-2.893 0-5.42-1.521-6.781-3.783-1.364 2.261-3.89 3.782-6.781 3.782a8.087 8.087 0 0 1-2.35-.348 22.191 22.191 0 0 0 .386 6.481h17.478a22.29 22.29 0 0 0 .398-6.48"/></g><g fill="#FFF"><path d="M384.628 20.362c-.041.596-.062.658-.447.658-.445 0-3.318.065-6.213.065-1.658 0-2.957-.022-4.297-.022-.914 0-2.426.065-3.17.065h-.426a1.075 1.075 0 0 1-.064-.361c0-.109.043-.3.064-.383.51-.151 1.426-.363 1.957-.618.17-.298.277-.937.297-1.702 0-.362.023-1.169.023-2.852 0-.682-.043-2.681-.107-5.51-.021-1.087-.064-1.914-.127-2.126-.107-.32-.277-.682-.703-.873-.34-.086-.83-.065-1.34-.193-.043-.084-.064-.318-.064-.425 0-.148.043-.255.107-.339l8.021-.022c.064.043.084.256.084.361 0 .106-.02.32-.084.384-.98.041-2.191.021-2.191 1.617v2.424l.127 7.958c0 .404.383 1 .682 1.255.424.361.936.553 1.807.553 1.234 0 1.639-.255 2.598-.743 1.191-.617 2.041-1.999 2.658-3.49.107-.043.32-.064.426-.064.17 0 .297.021.426.107.021.81.021 2.087.021 2.34 0 .616-.022 1.277-.065 1.936zM395.439 21.063h-.703c-.699 0-2.914-.062-3.232-.062-1.105 0-3.236.105-4.088.105h-.359c0-.105-.043-.191-.043-.361 0-.087.021-.36.064-.446 1.551-.104 1.809-.489 2.064-.702.148-.277.254-.767.297-1.276.021-.745.064-2.128.064-2.746 0-1.234-.021-2.722-.043-3.786-.021-1.959-.043-2.828-.064-3.233-.086-1.15-.447-1.616-.701-1.808-.148-.108-.619-.214-1.66-.3a2.93 2.93 0 0 1-.043-.404c0-.191.043-.275.105-.362h.471c.934.022 3.021.087 3.467.087.725 0 2.809-.107 3.701-.107h.619a.662.662 0 0 1 .105.34c0 .086-.021.32-.064.406-.68.084-1.488.17-1.893.553-.15.127-.383.575-.383 1.148v5.233c0 1.979.021 4.084.043 5.105.148.766.381 1.234.723 1.639.383.087 1.254.171 1.574.191.043.086.064.32.064.427a.778.778 0 0 1-.085.359zM412.888 20.085c-.959.896-2.129 1.044-3.66 1.021l-6.428-.086c-.572 0-2.424.043-3.021.043-.402 0-.785 0-.871-.021-.041-.085-.064-.298-.064-.385 0-.082.023-.273.107-.425 1.234 0 2.172-.234 2.256-.553.127-.445.256-1.189.318-1.871.023-.575.064-2.297.064-4.277 0-1.787-.107-4.764-.127-4.978a6.268 6.268 0 0 0-.129-.957c-.105-.404-.402-.873-1-.959-.51-.062-1.191-.148-1.51-.191a1.398 1.398 0 0 1-.064-.382c0-.128.021-.234.084-.341.107-.021.342-.021.514-.021h5.043c1.297 0 2.764-.063 3.637-.063 1.17 0 2.213.148 2.83.446 1.424.661 2.062 1.83 2.062 3.47 0 1.339-.51 2.318-1.404 2.722-.275.127-1.064.341-1.445.445-.107.022-.385.087-.385.171 0 .129.363.149.619.193.338.063 1.297.254 1.551.361.385.147 1.279.743 1.682 1.51.363.639.555 1.362.555 2.171-.001 1.213-.429 2.214-1.214 2.957zm-2.957-4.872c-.619-1.107-1.256-1.383-2.512-1.66a6.907 6.907 0 0 0-1.428-.147c-.445 0-.807.021-.871.106 0 .041-.021.298-.021.724V18c0 .616.021.769.064 1.021.215.468.617.873 1.064 1.173.17.039.658.062.895.062 1.254 0 1.701-.234 2.318-.853.553-.596.85-1.467.85-2.699.001-.577-.126-1.087-.359-1.491zm-1.086-7.445c-.34-.639-.83-1-1.49-1.149-.299-.085-.725-.128-1.213-.128-.275 0-.617.021-.936.021-.021.661-.064 3.299-.064 3.299v1.683c0 .592.021.999.064 1.04.021.043.299.043.617.043.873 0 2.254-.234 2.51-.448a1.34 1.34 0 0 0 .361-.445c.385-.637.574-1.34.574-2.085a3.983 3.983 0 0 0-.423-1.831zM433.634 21.086h-3.041c-.809 0-1.936-.043-2.105-.065-.406-.04-.574-.424-.641-.871-.211-1.554-.658-3.511-1.34-4.575-.51-.787-.893-1.105-1.68-1.553-.533-.298-.854-.339-1.129-.339-.17 0-.383 0-.553.021l.021 4.913c0 .744.383 1.258.914 1.513.234.043.766.17 1.193.213.043.085.084.296.084.448 0 .082-.041.23-.084.316-1.213 0-2.363-.063-3.725-.063-.68 0-3.936.063-4.234.063a1.285 1.285 0 0 1-.084-.339c0-.109.041-.318.107-.426.424-.022.934-.108 1.209-.147.619-.257.811-.896.875-1.426.105-.81.084-3.321.084-5.493 0-2.999-.021-4.743-.127-5.421-.213-.471-.383-.769-.895-1.15-.34-.065-1-.15-1.361-.193a2.364 2.364 0 0 1-.043-.382c0-.086.043-.255.105-.404.129 0 .938.043 1.258.043.744 0 2.594.041 2.914.041 1.062 0 3.299-.148 4.893-.148 1.129 0 2.045.087 2.555.234 1.553.491 2.658 2.148 2.658 3.872 0 1.148-.467 2.127-1.318 2.766-.404.32-.766.596-2.342.786a8.002 8.002 0 0 0-.871.13c.256.104.531.213.871.339.746.257 1.406.534 1.598.704.51.467 1.127 1.469 1.574 2.529.318.81.637 1.471.914 2.448.086.148.256.405.361.53.32.234 1.191.277 1.406.277.062.086.105.343.105.448.003.104-.04.276-.126.361zm-6.531-13.447c-.596-1-1.32-1.148-2.979-1.148-.449 0-.83.063-.895.128-.062.063-.127.211-.127.468v3.915l.021 1.809c.256.043.574.043.789.043.785 0 1.316-.063 1.744-.171 1.041-.255 1.936-1.767 1.936-3.085.001-.725-.149-1.384-.489-1.959zM451.976 21.086c-1.383 0-3.086-.065-4.404-.065-.809 0-1.744.043-2.107.043h-1.596c-.105-.083-.127-.296-.148-.383 0-.084.021-.254.127-.382.832-.043 1.277-.127 1.574-.277.193-.212.297-.618.297-1.041-.084-.32-.254-.83-.551-1.681-.17-.512-.342-.938-.488-1.3-.086-.148-.277-.487-.447-.617-.895.021-3.277-.019-4.768.044a4.26 4.26 0 0 0-.318.786l-.811 2.49c.086.7.322 1.171.619 1.446.191.084.766.17 1.299.213.062.105.105.275.084.362a.964.964 0 0 1-.084.382h-.574c-.768 0-1.598-.086-2.406-.086-.744 0-2.041.043-2.49.043a.684.684 0 0 1-.082-.339c.02-.087.062-.298.082-.405.916-.255 1.895-.488 2.236-1.255.637-1.553.488-1.148 1.51-3.852 1.043-2.766 1.809-4.702 2.277-5.808.596-1.362.895-2.128.957-2.276.213-.575.467-1.063.658-1.234.129-.147.576-.3.746-.3.211 0 1.086.173 1.211.343.045.062.129.232.193.403l.936 2.319 3.191 7.958c.404.978.598 1.425.959 2.275.168.426.424.916.553 1.021.105.084 1.213.384 1.766.47.043.083.105.273.129.36a.698.698 0 0 1-.13.343zm-8.426-7.829a97.618 97.618 0 0 0-1.469-3.701 9.692 9.692 0 0 1-.191-.428c-.234.575-.512 1.214-.914 2.213-.596 1.512-1.086 2.895-1.17 3.19h2.574c.596 0 1.191 0 1.574-.083a9.735 9.735 0 0 0-.404-1.191zM469.445 21.086h-3.043c-.809 0-1.938-.043-2.107-.065-.402-.04-.572-.424-.637-.871-.213-1.554-.66-3.511-1.34-4.575-.512-.787-.895-1.105-1.682-1.553-.531-.298-.852-.339-1.127-.339-.17 0-.383 0-.553.021l.02 4.913c0 .744.383 1.258.916 1.513.234.043.764.17 1.191.213.043.085.084.296.084.448 0 .082-.041.23-.084.316-1.213 0-2.361-.063-3.725-.063-.68 0-3.936.063-4.232.063a1.3 1.3 0 0 1-.086-.339c0-.109.043-.318.105-.426.426-.022.938-.108 1.213-.147.617-.257.811-.896.873-1.426.107-.81.086-3.321.086-5.493 0-2.999-.021-4.743-.127-5.421-.215-.471-.385-.769-.895-1.15-.34-.065-1-.15-1.361-.193a2.364 2.364 0 0 1-.043-.382c0-.086.043-.255.105-.404.129 0 .936.043 1.256.043.746 0 2.596.041 2.916.041 1.062 0 3.297-.148 4.893-.148 1.129 0 2.041.087 2.555.234 1.553.491 2.656 2.148 2.656 3.872 0 1.148-.467 2.127-1.316 2.766-.406.32-.768.596-2.342.786a8.045 8.045 0 0 0-.873.13c.256.104.533.213.873.339.744.257 1.404.534 1.598.704.51.467 1.127 1.469 1.572 2.529.32.81.639 1.471.916 2.448.086.148.254.405.361.53.32.234 1.191.277 1.404.277.064.086.105.343.105.448.002.104-.039.276-.125.361zm-6.531-13.447c-.596-1-1.318-1.148-2.979-1.148-.447 0-.832.063-.893.128-.066.063-.131.211-.131.468v3.915l.021 1.809c.256.043.576.043.789.043.789 0 1.318-.063 1.744-.171 1.043-.255 1.938-1.767 1.938-3.085.001-.725-.148-1.384-.489-1.959zM486.996 6.341c-.426.106-1.234.235-1.531.427-.426.253-.979.744-1.277 1.297l-3.34 6.427c-.107.169-.15.36-.15.573 0 .022-.02.275 0 .532l.191 2.999c.043.83.213 1.001.555 1.362.213.214 1.17.341 1.852.427a.843.843 0 0 1 .084.383c0 .104-.062.296-.105.382-.383 0-.938-.021-1.66-.043a324.043 324.043 0 0 0-3.191-.043c-.639 0-2.574.022-3.66.022-.02-.085-.062-.257-.062-.361a.82.82 0 0 1 .105-.405c.49-.043 1.553-.19 1.701-.277.363-.232.682-.723.682-1.637 0-1.085-.043-1.767-.191-2.362a7.035 7.035 0 0 0-.682-1.595l-3.766-7.105c-.148-.277-.682-.534-2.107-.873a.887.887 0 0 1-.105-.361c0-.152.043-.277.127-.428.17 0 2.234.066 3.279.066 2.447 0 2.85-.066 4.275-.066h.383c.064.107.127.171.127.319 0 .086 0 .32-.043.427-.891.106-1.553.169-1.744.532-.041.084-.084.275-.062.553 0 .19.127.447.191.596l1.148 2.383c.256.555 1.361 2.681 1.936 3.701.342-.53.873-1.596 1.789-3.36.594-1.171 1.02-2.023 1.23-2.554.109-.277.131-.532.131-.786 0-.148-.043-.405-.17-.619-.172-.296-1.064-.445-1.684-.572-.02-.066-.02-.257-.02-.362 0-.106.02-.234.084-.361.574 0 1.469.084 2.553.084.449 0 2.236-.065 3.107-.065.043.086.129.236.129.361-.002.084-.066.274-.109.382zM194.242 5.911c0-.086-.02-.236-.063-.301h-.494c-1.073 0-1.76.043-3.69.043-.666 0-1.653-.043-1.891-.043h-.556c-.065.043-.087.279-.087.365 0 .107.021.279.107.367.343.104 1.652.254 2.211.621.383.451.557 1.352.62 2.188.021.326.044.645.044 1.525v4.49c0 .514-.022.688-.044.924-.362-.41-.878-1.182-1.737-2.15l-7.172-7.941a1.325 1.325 0 0 0-.32-.281c-.172 0-.473-.021-.645-.021-1.373 0-3.865-.064-4.23-.064a.762.762 0 0 0-.086.305c0 .039.041.342.064.406.322.084 1.033.189 1.609.814.346.385.946.922 1.142 1.354.063.148.083.385.083.686 0 1.117-.064 2.686-.064 4.186v4.361c0 .709-.063 1.266-.128 1.631-.448.473-1.137.816-2.255 1.096a1.245 1.245 0 0 0-.084.387c0 .064.02.279.064.301h.408c.426 0 1.418-.064 2.059-.064.946 0 1.59.064 2.47.064h1.288c.09-.021.108-.279.108-.363a.935.935 0 0 0-.063-.344c-.752-.193-1.846-.365-2.576-1.332-.152-.322-.28-1.912-.28-2.666 0-.686-.022-1.631-.022-2.896 0-1.697.022-3.178.045-3.93.127.15.277.342.386.473l9.918 11.145c.108.107.493.129.599.129.108 0 .174 0 .258-.043.045-.107.195-.451.195-.967 0-.621-.021-1.266-.021-1.588V9.819c0-2.686 1.268-3.436 2.75-3.502.06-.105.08-.298.08-.406m-24.606 6.83c0 3.242-.898 6.096-2.121 7.105-.626.516-1.4.773-2.279.773-1.202 0-2.254-.471-2.856-1.439-.815-1.246-1.269-3.564-1.269-5.582 0-2.986.774-5.326 2.148-6.465.733-.602 1.482-.836 2.234-.836 1.16 0 2.275.559 2.919 1.482.817 1.117 1.224 2.728 1.224 4.962m3.889.408c0-3.008-1.332-5.305-3.82-6.678-1.333-.734-2.666-1.098-4.08-1.098-3.137 0-5.971 1.869-7.239 3.994-.816 1.332-1.246 2.791-1.246 4.338 0 2.471 1.205 4.895 3.073 6.291 1.415 1.031 3.027 1.545 4.896 1.545a8.909 8.909 0 0 0 3.264-.621 7.692 7.692 0 0 0 2.983-2.041c1.395-1.523 2.169-3.478 2.169-5.73m-18.874-2.707V6.06c0-.322-.129-.406-.453-.406-.645 0-4.039.084-7.473.084-2.664 0-4.875-.041-6.077-.041h-1.591c-.277 0-.363.064-.363.363v4.104c.086.064.236.084.345.084.086 0 .386 0 .472-.043.966-1.951 1.867-3.004 3.006-3.582.643-.068 1.912-.09 2.252-.09.023.238.047.99.067 1.891.021 1.545.021 2.211.021 5.861 0 3.158-.021 4.574-.064 4.92-.086.6.023 1.053-2.554 1.158-.065.15-.065.324-.065.494 0 .086 0 .26.021.344h.838c.793 0 2.661-.084 3.436-.084.623 0 2.621.062 3.931.062h.6c.062-.107.062-.342.062-.453a.765.765 0 0 0-.088-.385c-.232 0-1.609.041-2.209-.406a6.78 6.78 0 0 1-.194-1.613c-.022-2.318-.044-3.197-.044-4.746 0-1.994.021-3.348.021-7.064.303 0 .988-.02 1.632 0 1.333.367 1.978.859 2.557 1.635.366.492.752 1.332 1.138 2.34.131.043.239.043.367.043.087-.002.363-.045.409-.088m-18.514 6.981c0-.305 0-.432-.021-.625-.105-.066-.15-.066-.322-.066-.15 0-.321 0-.472.045-.729 1.652-1.781 2.943-2.362 3.285-.32.195-.816.236-1.609.236h-1.762c-.686 0-1.224-.064-1.416-.107-.325-.062-.666-.578-.818-.922-.15-.365-.233-.365-.233-1.354v-4.703h.793c.214 0 .731.043 1.312.301.535.236.752.559.965.902.194.301.322 1.48.363 1.783.109.062.389.086.558.086a.785.785 0 0 0 .435-.107c0-.582-.133-2.148-.133-3.008 0-1.074.151-2.557.215-3.328-.082-.045-.215-.086-.426-.086-.154 0-.432 0-.562.064-.063.303-.299 1.201-.344 1.268-.318.537-.879.943-1.46 1.115-.386.107-.944.17-1.243.17h-.453v-1.994c0-2.062.046-2.729.064-3.115.023-.258.066-.535.086-.73.195-.021.303-.041 1.291-.041 1.244 0 1.823.02 2.018.02.604.043 1.051.174 1.374.43.814.625 1.437 1.611 2.062 2.666.128.041.342.041.451.041.129 0 .148-.041.324-.129 0-1.311-.09-3.008-.131-3.543-.022-.215-.064-.279-.494-.279-.173 0-.988-.043-1.849-.043-1.225 0-1.716.021-3.583.021-1.011 0-3.096.021-3.975.021-1.287 0-2.385-.043-2.942-.043h-.729a.713.713 0 0 0-.107.346c0 .105.043.344.107.428.259.084 1.269.064 1.568.236.3.258.58.365.775 1.396.041.451.062 1.695.062 2.684v4.424c0 .904-.021 2.211-.044 2.748-.044.836-.345 1.846-.472 2.039-.195.15-1.074.279-1.932.324-.066.127-.109.342-.109.471s.043.279.109.387h.707c.686 0 3.22-.064 3.8-.064.538 0 1.567.045 2.814.045.685 0 2.706.127 7.044.127.172 0 .363.02.58-.043.064-.107.064-.15.087-.344.039-.429.039-1.699.039-3.435m-18.168.75c-.063-.193-.235-.518-.729-.518-.042 0-.104.021-.149.021-1.288 1.826-2.706 2.514-4.315 2.514-2.235 0-3.825-1.502-4.339-2.834-.276-.709-.666-2.256-.666-3.908 0-1.566.236-2.836.645-3.758.945-2.49 2.32-3.264 3.994-3.264 1.395 0 2.555.793 3.436 1.934.365.492.752 1.459 1.096 2.598.086.023.281.062.473.062.13 0 .43-.107.516-.191-.022-.238-.236-1.891-.236-2.406 0-.643.17-1.695.17-2.105-.128-.127-.559-.213-.836-.234-.322.234-.43.514-.729.881-1.202-.859-2.321-1.525-4.768-1.525-2.255 0-4.036.773-5.392 2.127-1.48 1.459-2.297 3.479-2.297 6.053 0 2.752 1.16 5.004 3.029 6.422 1.181.859 2.922 1.439 5.002 1.439 2.621 0 4.533-.986 5.5-2.299.382-.513.427-.644.595-1.009M101.264 5.911c0-.086-.021-.236-.066-.301h-.494c-1.074 0-1.759.043-3.691.043-.666 0-1.653-.043-1.891-.043h-.557c-.063.043-.086.279-.086.365 0 .107.022.279.104.367.345.104 1.655.254 2.212.621.386.451.562 1.352.625 2.188.019.326.042.645.042 1.525v4.49c0 .514-.023.688-.042.924-.367-.41-.881-1.182-1.74-2.15l-7.172-7.941a1.437 1.437 0 0 0-.321-.281c-.171 0-.476-.021-.645-.021-1.377 0-3.866-.064-4.233-.064a.85.85 0 0 0-.085.305c0 .039.045.342.067.406.321.084 1.029.189 1.609.814.344.385.943.922 1.139 1.354.062.148.085.385.085.686 0 1.117-.063 2.686-.063 4.186v4.361c0 .709-.063 1.266-.131 1.631-.449.473-1.139.816-2.254 1.096a1.221 1.221 0 0 0-.086.387c0 .064.022.279.063.301h.409c.43 0 1.418-.064 2.062-.064.947 0 1.587.064 2.471.064h1.287c.086-.021.108-.279.108-.363a1 1 0 0 0-.063-.344c-.753-.193-1.849-.365-2.579-1.332-.152-.322-.276-1.912-.276-2.666 0-.686-.026-1.631-.026-2.896 0-1.697.026-3.178.045-3.93.131.15.28.342.389.473l9.92 11.145c.107.107.494.129.6.129.107 0 .174 0 .258-.043.044-.107.194-.451.194-.967 0-.621-.02-1.266-.02-1.588V9.819c0-2.686 1.267-3.436 2.747-3.502.064-.105.085-.298.085-.406m-21.24 14.883c0-.107-.02-.344-.064-.432-.321-.021-1.201-.105-1.586-.191-.345-.41-.58-.885-.73-1.654a287.021 287.021 0 0 1-.044-5.152V8.079c0-.578.235-1.029.386-1.158.407-.389 1.223-.475 1.912-.559.044-.084.062-.322.062-.408 0-.129-.062-.301-.107-.344h-.621c-.903 0-3.006.107-3.736.107-.449 0-2.557-.064-3.5-.086h-.476c-.064.086-.105.174-.105.367 0 .084.023.299.041.406 1.053.086 1.525.191 1.677.299.256.195.622.666.708 1.828.023.406.045 1.287.064 3.262.021 1.076.044 2.578.044 3.822 0 .625-.044 2.02-.063 2.773-.045.514-.154 1.008-.303 1.285-.259.215-.514.604-2.082.707-.045.088-.062.367-.062.455 0 .17.041.256.041.363h.367c.856 0 3.004-.107 4.121-.107.32 0 2.556.064 3.264.064h.71a.825.825 0 0 0 .082-.361M62.802 9.585c0 1.328-.901 2.855-1.953 3.113-.43.105-.966.172-1.763.172-.213 0-.536 0-.794-.043l-.022-1.826V7.05c0-.26.067-.408.131-.473.064-.066.452-.131.901-.131 1.674 0 2.407.15 3.006 1.16.345.581.494 1.247.494 1.979m6.228 11.228c0-.107-.041-.363-.107-.451-.214 0-1.094-.043-1.416-.277a5.07 5.07 0 0 1-.365-.537c-.28-.99-.6-1.654-.925-2.471-.45-1.074-1.073-2.082-1.587-2.555-.194-.174-.861-.451-1.61-.709a21.805 21.805 0 0 1-.883-.346c.321-.061.476-.086.883-.127 1.588-.191 1.954-.471 2.362-.795.857-.645 1.33-1.633 1.33-2.791 0-1.738-1.117-3.412-2.684-3.908-.518-.15-1.438-.236-2.576-.236-1.613 0-3.867.15-4.94.15-.321 0-2.19-.043-2.942-.043-.322 0-1.138-.043-1.269-.043-.064.15-.106.324-.106.408s.023.301.042.389c.368.039 1.03.125 1.377.191.515.387.687.686.903 1.16.104.688.127 2.447.127 5.473 0 2.191.022 4.725-.086 5.541-.066.537-.258 1.184-.884 1.441-.276.041-.79.127-1.224.15a1.09 1.09 0 0 0-.105.428c0 .064.045.236.087.344.3 0 3.585-.064 4.274-.064 1.373 0 2.534.064 3.758.064a.93.93 0 0 0 .086-.322 1.31 1.31 0 0 0-.086-.449c-.431-.047-.969-.172-1.201-.215-.539-.26-.925-.773-.925-1.525l-.023-4.963c.173-.02.387-.02.56-.02.281 0 .602.043 1.137.344.794.451 1.184.771 1.699 1.566.686 1.076 1.135 3.053 1.352 4.617.062.453.236.838.645.883.171.02 1.309.062 2.125.062h3.07c.086-.084.127-.256.127-.364M45.708 9.69c0 1.094-.385 2.061-1.096 2.682-.448.369-1.156.582-2.23.582-.449 0-.794-.021-.924-.043-.172-.021-.278-.041-.278-.15l.02-6.289c.259-.025.625-.109 1.246-.109 1.459 0 2.362.365 2.792 1.27.3.575.47 1.305.47 2.057m3.845.086c0-1.611-.925-3.113-2.299-3.736-.707-.303-1.953-.494-3.841-.494-1.657 0-4.231.129-5.37.129-.793 0-1.999-.086-2.664-.086a.778.778 0 0 0-.106.348c0 .082 0 .318.065.426.406.129 1.072.234 1.504.342.363.324.448.604.576 1.225.066.754.107 1.697.107 3.33 0 4.531-.018 6.914-.085 7.43-.086.645-.513 1.309-1.224 1.525-.322.064-.795.168-1.246.215-.02.105-.043.258-.043.449 0 .172.023.193.064.301.688 0 2.705-.086 3.48-.086 1.909 0 3.865.086 4.656.086h.54c.062-.086.062-.236.062-.342 0-.131 0-.303-.042-.387-.643-.088-1.608-.217-2.017-.689-.216-.258-.431-.623-.431-1.266l-.063-4.723c1.288.082 2.661.127 3.414.127.988 0 1.827-.174 2.492-.387 1.528-.58 2.471-2.084 2.471-3.737M361.234 5.737c0-.127-.086-.17-.129-.256-.881 0-2.039.064-2.49.064-1.096 0-2.428-.086-3.008-.086-.062.129-.084.15-.084.26a.79.79 0 0 0 .043.256c.621.129 1.523.279 1.695.578.152.279.195.496.195.838 0 .258-.023.518-.129.795-.193.537-.604 1.375-1.184 2.557-.986 1.998-1.609 3.242-1.953 3.734-.559-.941-1.805-3.434-2.104-4.08l-1.203-2.617c-.043-.086-.086-.389-.086-.58 0-.279.043-.473.086-.559.193-.387.859-.43 1.76-.537a.9.9 0 0 0 .066-.324c0-.148-.066-.105-.129-.213h-.389c-1.439 0-1.01.064-3.479.064-1.053 0-2.318-.064-2.49-.064-.086.152-.129.17-.129.322 0 .086.021.15.084.258 1.439.344 1.869.602 2.02.881l3.76 7.365c.363.686.576 1.223.686 1.609.15.604.172 1.482.172 2.578 0 .922-.322 1.418-.688 1.652-.15.086-1.225.238-1.717.279-.086.148-.107.193-.107.303 0 .105.043.17.062.256 1.098 0 2.234-.021 2.881-.021.447 0 1.135.021 2.404.043.73.023 1.287.043 1.676.043.041-.086.105-.172.105-.279s-.02-.17-.086-.279c-.686-.084-1.652-.215-1.867-.428-.344-.367-.518-.537-.561-1.373l-.17-3.223c-.021-.236.062-.451.084-.516.066-.236.152-.43.238-.604l3.307-6.549c.301-.559.945-1.182 1.373-1.439.301-.191.969-.32 1.396-.428.048-.106.089-.192.089-.28m-17.35 4.426V5.999c0-.324-.129-.41-.453-.41-.643 0-3.605.086-7.043.086-2.662 0-4.445-.043-5.646-.043h-1.59c-.281 0-.365.064-.365.367v3.887a.38.38 0 0 0 .258.082c.084 0 .172 0 .258-.041.838-1.867 1.266-2.857 2.705-3.584.645-.064 2.898-.088 3.244-.088.02.236.043.988.062 1.891.02 1.545.02 2.381.02 6.031 0 3.158-.02 4.789-.062 5.133-.086.602.023 1.053-2.555 1.162-.064.148-.064.189-.064.365 0 .084 0 .17.021.256h.838c.795 0 1.846-.086 2.619-.086.623 0 1.807.064 3.115.064h.602c.062-.107.062-.215.062-.322a.497.497 0 0 0-.084-.299c-.236 0-1.609.043-2.213-.41a6.647 6.647 0 0 1-.193-1.609c-.021-2.32-.045-3.414-.045-4.961 0-1.998.023-3.521.023-7.234.301 0 1.891-.023 2.533 0 1.332.361 1.848.857 2.428 1.631.516.686.643 1.309.965 2.34a.882.882 0 0 0 .324.041.406.406 0 0 0 .236-.085m-17.845 10.606a.7.7 0 0 0-.064-.297c-.322-.021-1.203-.109-1.59-.193-.344-.406-.58-.881-.729-1.656a306.607 306.607 0 0 1-.043-5.367V7.8c0-.58.234-1.029.387-1.158.408-.387 1.225-.475 1.91-.559a.65.65 0 0 0 .064-.277.363.363 0 0 0-.107-.26h-.623c-.902 0-2.189.107-2.922.107-.451 0-1.74-.064-2.684-.086h-.471c-.066.086-.107.086-.107.279 0 .086.02.172.041.279 1.053.086 1.527.191 1.676.301.258.195.621.666.709 1.826.021.406.041 1.502.064 3.477.021 1.074.043 2.533.043 3.781 0 .623-.043 2.232-.066 2.982-.041.516-.148 1.01-.299 1.289-.258.217-.516.6-2.084.711a.837.837 0 0 0-.064.322c0 .17.043.17.043.277h.365c.859 0 2.189-.107 3.309-.107.322 0 1.738.064 2.447.064h.709a.535.535 0 0 0 .086-.279m-10.608-3.95c0-1.717-.775-2.898-2.428-3.779-.451-.26-1.244-.537-2.383-.859-1.311-.365-2.406-.793-3.113-1.18-.475-.258-1.27-.967-1.27-2.342 0-1.373 1.396-2.512 3.029-2.512 1.287 0 2.32.643 2.941 1.502.537.754.73 1.096 1.332 2.449.064.021.15.043.215.043a.698.698 0 0 0 .473-.215c-.064-.535-.172-1.287-.172-1.932 0-.559.127-1.291.191-1.678-.172-.256-.363-.299-.643-.299-.301.193-.58.492-.838.771-1.416-1.137-2.578-1.33-3.65-1.33-2.641 0-4.531 1.76-4.531 4.102 0 .795.277 1.568.795 2.363.473.666 1.158 1.182 2.082 1.566.625.258 3.416 1.098 3.801 1.246 1.719.664 2.363 1.246 2.363 2.77 0 .752-.322 1.418-.945 2.168-.559.688-1.439 1.012-2.383 1.012-1.01 0-2.75-.432-3.607-1.59-.518-.666-1.248-2.061-1.461-2.9-.15-.043-.15-.043-.301-.043a.756.756 0 0 0-.41.131c0 .279.086 1.695.086 2.123 0 1.055-.189 1.568-.234 1.912.064.215.43.43.686.43.453-.387.926-.686 1.074-.686.131 0 .324.064.516.191 1.398.902 2.557 1.074 3.588 1.074 3.027.002 5.197-1.523 5.197-4.508m-19.006-7.408c0 1.373-1.094 2.92-2.363 3.199-.514.109-1.266.17-2.232.17-.256 0-.988 0-1.311-.039l-.021-1.891V6.79c0-.279.066-.428.152-.492.086-.062.965-.131 1.502-.131 2.02 0 2.941.195 3.672 1.246.406.582.601 1.246.601 1.998m4.508 11.381a.564.564 0 0 0-.105-.32c-.213 0-1.096-.043-1.416-.281a4.54 4.54 0 0 1-.365-.535 28.258 28.258 0 0 0-.904-2.686c-.449-1.074-1.072-2.082-1.588-2.555-.193-.172-.795-.449-1.547-.709-.342-.131-.621-.236-.881-.344.324-.066.473-.086.881-.129 1.395-.17 1.869-.473 2.277-.793.857-.646 1.416-1.611 1.416-2.771 0-1.74-1.117-3.391-2.684-3.889-.516-.148-1.439-.234-2.576-.234-1.611 0-2.812.15-3.889.15-.322 0-1.373-.043-2.125-.043-.32 0-1.137-.043-1.268-.043-.064.15-.105.195-.105.279 0 .086.02.215.041.301.367.045 1.031.127 1.373.193.518.387.688.686.904 1.158.107.686.129 2.621.129 5.646 0 2.191.021 4.941-.088 5.758-.062.535-.258 1.182-.881 1.436a11.25 11.25 0 0 1-1.223.152c-.064.107-.107.191-.107.303 0 .062.043.148.088.256.299 0 2.768-.064 3.455-.064 1.375 0 1.719.064 2.941.064.045-.086.088-.15.088-.236a.62.62 0 0 0-.088-.322c-.428-.041-.965-.172-1.201-.215-.537-.256-.922-.771-.922-1.523l-.023-5.369c.172-.02.795-.02.967-.02.58 0 1.16.041 1.719.299.814.365 1.588.945 2.105 1.738.686 1.074 1.137 3.113 1.352 4.684.064.449.234.836.643.879.174.021.43.064 1.248.064h2.23a.364.364 0 0 0 .129-.279m-18.016-3.264c0-.299 0-.43-.021-.621-.105-.068-.15-.068-.322-.068-.15 0-.129 0-.279.045-.473 1.568-1.287 2.729-2.211 3.287-.322.191-.902.236-1.826.236h-2.404c-.752-.025-1.225-.066-1.418-.109-.322-.064-.666-.578-.816-.924-.15-.365-.236-.494-.236-1.48v-4.896h.688c.686 0 1.246.043 1.826.299.537.24.945.582 1.158.926.195.301.258 1.48.303 1.781.105.066.17.088.344.088.168 0 .193-.021.344-.107 0-.582-.131-2.148-.131-3.008 0-1.072.152-2.385.215-3.156-.084-.043-.129-.084-.342-.084-.15 0-.217 0-.346.064-.064.299-.236 1.201-.279 1.264-.32.539-1.072.967-1.654 1.139-.385.109-.943.17-1.758.17h-.344v-2.1c0-2.064.041-2.902.062-3.289.021-.256.064-.537.086-.729.195-.02.816-.043 1.805-.043 1.246 0 2.168.023 2.361.023.602.043 1.053.17 1.373.428 1.055.816 1.334 1.354 1.914 2.662.127.043.15.043.256.043.129 0 .15-.043.324-.129 0-1.311-.086-2.793-.131-3.328-.02-.215-.064-.279-.492-.279-.172 0-.99-.043-1.846-.043-1.225 0-1.721.021-3.588.021-1.01 0-2.793.021-3.672.021-1.291 0-1.568-.043-2.127-.043h-.729a.44.44 0 0 0-.109.258c0 .107.043.215.109.301.258.088 1.266.064 1.564.236.303.258.582.32.775 1.354.043.449.064 1.91.064 2.896v4.424c0 .902-.021 2.385-.043 2.922-.043.838-.344 1.893-.473 2.084-.193.15-1.072.277-1.934.318-.064.131-.105.217-.105.344 0 .131.041.195.105.303h.709c.689 0 2.406-.064 2.984-.064.537 0 1.268.043 2.512.043.689 0 2.705.129 7.045.129.172 0 .365.021.582-.043.062-.107.062-.15.084-.344.044-.431.044-1.481.044-3.222m-15.89-11.722c0-.086-.023-.217-.107-.238h-.73c-.516 0-1.332.043-1.697.043-1.738 0-2.359-.107-2.619-.107h-.387c-.041.107-.107.172-.107.277 0 .088.043.152.043.238.537.064 1.01.172 1.482.324.26.254.537.77.537 1.352 0 .215-.215 1.223-.516 1.953l-3.457 8.504-4.252-10.76c.062-.516.342-1.008.707-1.201.367-.043.816-.172 1.396-.172a.788.788 0 0 0 .086-.299c0-.088-.02-.217-.107-.238h-.537c-.664 0-1.674.086-2.814.086-.492 0-1.457-.043-2.402-.043h-.838c-.043.086-.088.129-.088.256 0 .131.023.174.064.26.604.15 1.184.387 1.807.73.408.6 1.287 2.768 1.762 3.908l1.781 4.293c1.48 3.566 2.361 5.949 2.467 6.357.109.064 0 .129.195.129.193 0 .172-.043.213-.148l5.543-13.314c.191-.473.494-.926.773-1.225.342-.387 1.053-.535 1.715-.688.024-.084.087-.172.087-.277m-18.813 14.963a.657.657 0 0 0-.064-.297c-.322-.021-1.203-.109-1.588-.193-.344-.406-.582-.881-.73-1.656a327.937 327.937 0 0 1-.043-5.367V7.8c0-.58.236-1.029.387-1.158.408-.387 1.223-.475 1.91-.559a.65.65 0 0 0 .064-.277.372.372 0 0 0-.105-.26h-.625c-.9 0-2.189.107-2.92.107-.45 0-1.738-.064-2.683-.086h-.474c-.064.086-.108.086-.108.279 0 .086.024.172.044.279 1.053.086 1.525.191 1.676.301.258.195.623.666.707 1.826.023.406.045 1.502.066 3.477.02 1.074.043 2.533.043 3.781 0 .623-.043 2.232-.064 2.982-.045.516-.149 1.01-.303 1.289-.256.217-.512.6-2.08.711a.801.801 0 0 0-.064.322c0 .17.041.17.041.277h.366c.858 0 2.19-.107 3.306-.107.322 0 1.74.064 2.447.064h.709a.499.499 0 0 0 .085-.279m-9.707-15.008a.37.37 0 0 0-.062-.215h-.495c-1.073 0-1.545.043-3.478.043-.667 0-1.653-.043-1.891-.043h-.558c-.065.043-.085.191-.085.279 0 .107.02.15.105.236.344.105 1.655.256 2.213.623.388.449.559 1.354.622 2.189.021.322.044.645.044 1.523v6.379c0 .518-.023.688-.044.924-.363-.406-.988-1.203-1.825-2.189l-8.204-9.578a1.311 1.311 0 0 0-.319-.279c-.175 0-.389-.021-.559-.021-1.377 0-2.577-.064-2.943-.064-.041.086-.064.129-.064.213 0 .045.023.219.043.281.322.086 1.268.193 1.654.602.342.387.857.838 1.053 1.266.063.15.084.387.084.688 0 1.119-.064 3.158-.064 4.66v4.576c0 .705-.064 1.266-.129 1.629-.449.473-1.139.816-2.254 1.096-.043.109-.085.148-.085.26 0 .062.021.191.063.213h.408c.429 0 1.418-.064 2.061-.064.945 0 1.375.064 2.256.064h1.289c.084-.021.105-.193.105-.281a.422.422 0 0 0-.062-.211c-.752-.195-1.848-.367-2.577-1.332-.149-.324-.278-1.957-.278-2.707 0-.688-.023-1.805-.023-3.07 0-1.697.023-4.037.043-4.789.13.15.322.389.473.561l10.18 11.916c.105.107.149.127.259.127.105 0 .041 0 .128-.039.043-.107.105-.455.105-.969 0-.621-.021-1.266-.021-1.586V9.538c0-2.682 1.268-3.434 2.749-3.498a.47.47 0 0 0 .083-.279m-19.883.107a.444.444 0 0 0-.108-.279h-.621c-.666 0-1.568.043-2.341.043-.86 0-1.825-.043-2.448-.043h-.774c-.063.131-.085.172-.085.279 0 .086.021.172.064.279.088 0 1.656.02 1.933.406.235.322.752 1.117.838 1.592.042.213.173 1.094.173 2.361 0 1.824 0 3.049-.021 3.693-.042 1.201-.173 2.146-.387 2.855-.603 1.869-1.998 2.791-4.211 2.791a5.882 5.882 0 0 1-2.512-.537c-1.396-.688-2.062-1.996-2.082-2.703l-.109-6.443-.021-2.621c0-.492.624-.945.837-1.199.172-.088 1.117-.176 1.652-.217.068-.127.109-.193.109-.301a.37.37 0 0 0-.15-.279l-.815.021c-.796.021-1.848.043-2.514.043-1.028 0-1.825-.021-2.468-.021h-.904c-.085.064-.105.191-.105.301s.021.193.084.258c.688.088 1.139.15 1.439.215.365.215.623.58.754.945.02.279.062.965.062 2.318v5.152c0 1.332.062 2.277.215 2.877.281 1.121.879 2 1.868 2.643 1.052.688 2.362 1.031 3.93 1.031 1.439 0 2.663-.301 3.693-.879 1.075-.578 1.741-1.525 2.126-2.857a9.765 9.765 0 0 0 .344-2.555v-4.125c0-.771.043-1.738.043-2.123.021-1.158.324-1.848.644-2.363.345-.109.646-.172 1.782-.301.043-.085.086-.149.086-.257"/></g></svg>