<svg xmlns="http://www.w3.org/2000/svg" xmlns:xlink="http://www.w3.org/1999/xlink" width="109.75" height="30.875" viewBox="0 0 109.75 30.875"><path fill="#F58025" d="M6.885 25.037a29.253 29.253 0 0 0 5.432 5.283 29.354 29.354 0 0 0 5.441-5.27l-5.445-5.295-5.428 5.282z"/><path fill="#F58025" d="M4.352 21.25l7.967-7.652 7.982 7.673a28.335 28.335 0 0 0 2.951-7.692c.028-.131.051-.26.079-.391H1.312a28.369 28.369 0 0 0 3.04 8.062"/><path fill="#F58025" d="M4.347 21.25a28.798 28.798 0 0 0 2.539 3.787l5.428-5.281 5.445 5.295a28.593 28.593 0 0 0 2.537-3.779l-7.982-7.673-7.967 7.651z"/><path d="M17.734 24.677l-5.245-5.101-.175-.169-.175.169-5.229 5.089a29.38 29.38 0 0 1-2.25-3.368l7.654-7.35 7.668 7.371a28.738 28.738 0 0 1-2.248 3.359"/><path d="M12.313 13.598l7.982 7.673a28.527 28.527 0 0 1-2.537 3.779l-5.445-5.295-5.428 5.281a28.798 28.798 0 0 1-2.539-3.787l7.967-7.651m0 .694l-7.34 7.049a28.384 28.384 0 0 0 1.965 2.948l5.026-4.892.349-.339.349.339 5.045 4.905a28.51 28.51 0 0 0 1.961-2.94l-7.355-7.07zM23.827 5.028c-.936.285-1.93.439-2.963.439-3.642 0-6.824-1.914-8.541-4.763-1.719 2.849-4.9 4.763-8.543 4.763-1.031 0-2.025-.154-2.959-.437a27.913 27.913 0 0 0 .486 8.164h22.018c.576-2.752.732-5.496.502-8.166"/><defs><path id="a" d="M6.896 6.029h10.85v6.398H6.896z"/></defs><clipPath id="b"><use xlink:href="#a" overflow="visible"/></clipPath><path clip-path="url(#b)" fill="#FFF" d="M17.746 8.396V7.46h-.572V6.8l-.6-.168h-.043v-.56s-.207.248-1.156.248c-.899 0-1.426-.291-2.141-.291-.687 0-.898.392-.898.392v.227h-.024v-.227s-.214-.392-.898-.392c-.715 0-1.242.293-2.141.293-.949 0-1.113-.248-1.113-.248v.59h-.039l-.65.136v.66h-.575v.936h.575V9.91h-.575v.937h.575v1.164s.962.151 1.853.151c1.053 0 1.66-.153 2.344-.166v.295s.275.136.642.136c.372 0 .666-.136.666-.136v-.295c.682.013 1.29.166 2.348.166.887 0 1.85-.151 1.85-.151v-1.164h.572V9.91h-.572V8.396h.572z"/><path d="M16.622 6.571l.002-.717-.173.183c-.002.002-.216.215-1.083.215l-1.176-.156-.966-.135c-.531 0-.795.217-.911.348-.116-.131-.382-.348-.91-.348l-.966.137-1.174.156c-.854 0-1.032-.205-1.034-.207l-.176-.217-.003.275v.492l-.697.147v5.381l.084.012c.01.001.981.152 1.87.152.876 0 1.916-.115 2.244-.154v.244l.054.029c.013.006.301.147.688.147.389 0 .695-.141.708-.147l.058-.027v-.246c.328.039 1.368.154 2.249.154.885 0 1.857-.151 1.867-.152l.084-.012V6.75l-.639-.179zm-4.207-.07c.008-.013.198-.342.811-.342l.923.131 1.219.16c.59 0 .891-.091 1.057-.171v5.085c-.012-.026-.252.156-1.057.156l-1.176-.156-.966-.135c-.419 0-.665.135-.811.256V6.501zm-4.164-.212c.16.08.447.164 1.014.164l1.217-.16.923-.133c.607 0 .8.325.811.342v4.986c-.148-.123-.396-.258-.819-.258l-.966.137-1.166.154c-.854 0-1.032-.205-1.034-.207l.02-5.025m8.81 5.662c-.245.035-1.025.137-1.751.137-1.041 0-2.324-.162-2.336-.164l-.113-.016v.342a1.676 1.676 0 0 1-.566.103 1.58 1.58 0 0 1-.543-.101v-.344l-.112.016c-.013.002-1.297.164-2.331.164-.729 0-1.509-.102-1.754-.137V6.907c.091-.018.364-.077.497-.104v4.569c.049.106.258.348 1.213.348l1.209-.158.923-.133c.618 0 .811.328.82.342l.028-.016h.143l.027.016c.008-.014.198-.342.811-.342l.923.131 1.219.16c.968 0 1.21-.254 1.234-.283l.019-4.657c.127.035.359.099.44.123v5.048z"/><path d="M9.667 7.185c-.078.006-.129.047-.152.1l-.321.712s-.015.012-.025.012c-.01 0-.022-.012-.029-.033a5.628 5.628 0 0 0-.131-.32l-.104-.234a1.977 1.977 0 0 0-.076-.16c-.037-.064-.084-.07-.135-.078-.006-.007-.006-.016-.006-.02 0-.008 0-.012.004-.022h.053c.061 0 .111.004.156.004.053 0 .141-.006.2-.006h.035c.006.002.008.014.008.02 0 .004 0 .017-.004.023-.039.004-.127.002-.127.057a.14.14 0 0 0 .008.047l.21.5.176-.415a.249.249 0 0 0 .024-.109c0-.047-.034-.068-.121-.078-.002-.006-.006-.015-.006-.02 0-.007.004-.019.006-.025h.025c.039 0 .078.006.166.006.016 0 .076-.004.105-.004h.061c.004.008.008.012.008.02a.058.058 0 0 1-.008.023M10.56 7.983c-.256 0-.395-.006-.43-.006l-.121-.002c-.035 0-.117.006-.207.006l-.052-.002c-.002-.008-.002-.012-.002-.019l.001-.024a.326.326 0 0 0 .128-.027c.015-.017.024-.053.029-.129l.002-.127-.002-.236v-.133c-.002-.092-.048-.092-.143-.104-.002-.008-.004-.014-.004-.021 0-.006.002-.02.008-.022h.047c.031 0 .115.002.275.002l.321.002.088.002c.019 0 .027.002.027.02l.012.191c-.012.006-.014.008-.024.008-.008 0-.014 0-.019-.002-.057-.096-.084-.115-.127-.147a.143.143 0 0 0-.075-.021c-.011 0-.041-.002-.113-.002-.058 0-.088.002-.096.002-.009 0-.007 0-.011.033-.002.02-.004.059-.004.17v.109h.029a.416.416 0 0 0 .096-.009.163.163 0 0 0 .086-.061c.008-.01.015-.056.019-.07a.053.053 0 0 1 .028-.006.04.04 0 0 1 .021.006c-.002.035-.008.099-.008.182l.004.167c-.008.006-.012.006-.023.006-.006 0-.018 0-.024-.002-.007-.072-.019-.121-.08-.146a.22.22 0 0 0-.093-.018.527.527 0 0 0-.057.004v.221c0 .051.004.082.012.1.005.013.025.043.05.046.012.002.034.006.078.006h.122a.25.25 0 0 0 .091-.013.46.46 0 0 0 .135-.182c.012-.004.018-.004.026-.004.007 0 .015.002.025.006v.223c-.001.021-.014.023-.045.023M11.575 7.405l-.023-.002a.511.511 0 0 0-.063-.125c-.035-.043-.068-.072-.156-.082-.02-.002-.067-.002-.082-.002l-.002.373.002.256c.002.098.045.098.146.111.006.01.008.018.008.024a.042.042 0 0 1-.006.021h-.037c-.058 0-.176-.004-.213-.004-.025 0-.154.006-.215.006-.005-.01-.007-.01-.007-.023 0-.006.002-.014.005-.022.135-.01.149-.035.153-.078.004-.027.004-.139.004-.252v-.308a.51.51 0 0 0-.008-.104c-.026 0-.108 0-.131.01-.068.025-.117.082-.17.185-.006.002-.016.002-.021.002-.008 0-.016-.002-.02-.007v-.217c0-.02.002-.026.025-.026l.092.002c.03 0 .153.002.307.002.203 0 .353-.006.392-.006.02 0 .034 0 .041.008.002.004 0 .02 0 .031v.217c-.003.008-.013.01-.021.01M9.626 8.728l-.025-.002a.4.4 0 0 0-.063-.125c-.033-.043-.068-.073-.156-.082-.02-.002-.067-.002-.082-.002l-.002.373.002.256c.002.098.047.098.148.111.006.01.006.018.006.024 0 .008 0 .013-.004.021h-.037c-.06 0-.178-.004-.213-.004-.025 0-.154.006-.217.006-.003-.011-.005-.011-.005-.024l.003-.022c.135-.01.149-.035.155-.078.002-.027.002-.139.002-.252v-.307c0-.039 0-.079-.006-.104-.026 0-.11 0-.133.01-.068.024-.115.081-.168.184-.008.002-.017.002-.023.002a.029.029 0 0 1-.02-.007v-.217c0-.02.004-.026.026-.026l.091.002.309.002c.201 0 .353-.006.391-.006.021 0 .035 0 .041.008.003.005.001.02.001.031v.217c-.005.009-.013.011-.021.011M10.591 9.306c-.254 0-.395-.006-.428-.006l-.123-.002c-.033 0-.117.006-.205.006l-.051-.002a.036.036 0 0 1-.005-.019c0-.006 0-.016.003-.024.069-.006.118-.017.127-.027.016-.018.024-.053.028-.129.002-.039.004-.082.004-.127l-.002-.236c0-.067-.002-.106-.002-.133-.002-.092-.045-.092-.141-.104a.048.048 0 0 1-.006-.021c0-.006.004-.02.01-.022h.045c.033 0 .115.002.275.002l.323.002.086.002c.021 0 .029.002.029.02l.01.191c-.01.006-.014.008-.024.008-.006 0-.012 0-.019-.002-.055-.096-.082-.115-.127-.147a.135.135 0 0 0-.073-.021c-.011 0-.041-.002-.115-.002-.056 0-.088.002-.094.002-.011 0-.009 0-.013.033 0 .02-.002.059-.002.17v.109h.027a.393.393 0 0 0 .096-.009.168.168 0 0 0 .088-.061.359.359 0 0 0 .017-.07.064.064 0 0 1 .028-.006c.009 0 .017.002.023.006-.002.035-.01.099-.01.182 0 .041.006.13.006.167-.01.006-.012.006-.023.006-.008 0-.018 0-.026-.002-.007-.072-.017-.121-.08-.146a.219.219 0 0 0-.092-.018.527.527 0 0 0-.056.004v.221c0 .051.004.082.01.1.007.013.027.043.05.046.012.002.036.006.078.006h.124a.239.239 0 0 0 .089-.013.443.443 0 0 0 .137-.182c.01-.004.018-.004.025-.004a.06.06 0 0 1 .024.006v.223c0 .021-.014.023-.045.023M11.185 9.325a.47.47 0 0 1-.195-.051.094.094 0 0 0-.032-.008.176.176 0 0 0-.062.034c-.02 0-.043-.01-.049-.026 0-.017.016-.07.016-.103 0-.02-.006-.116-.008-.137a.045.045 0 0 1 .037-.018h.014c.017.036.052.127.078.164a.261.261 0 0 0 .187.088c.063 0 .11-.011.137-.041.039-.037.047-.06.047-.101 0-.031-.006-.057-.024-.076-.021-.028-.039-.039-.087-.063-.038-.017-.168-.051-.215-.076a.322.322 0 0 1-.117-.082.253.253 0 0 1-.049-.154c0-.135.107-.237.26-.237.056 0 .134.006.201.059a.549.549 0 0 1 .048-.049c.026 0 .043.014.045.023-.002.02-.013.073-.013.116 0 .021.013.111.013.125-.009.004-.019.011-.033.011l-.015-.003c-.024-.041-.045-.11-.071-.147-.039-.053-.093-.072-.168-.072-.084 0-.152.053-.152.125 0 .07.057.103.103.125l.127.045c.063.021.11.037.135.05.098.051.139.124.139.223-.001.156-.141.256-.297.256M9.966 10.63c-.256 0-.395-.006-.43-.006l-.121-.002c-.035 0-.117.006-.207.006l-.051-.002c-.003-.008-.003-.012-.003-.019l.001-.024a.333.333 0 0 0 .129-.027c.014-.018.024-.053.028-.129l.002-.127-.002-.236v-.133c-.002-.092-.047-.092-.143-.104-.002-.008-.004-.015-.004-.021 0-.006.002-.02.008-.022h.047c.031 0 .115.002.275.002l.321.002.088.002c.019 0 .027.002.027.02l.012.191c-.012.006-.014.008-.024.008-.008 0-.014 0-.019-.002-.057-.096-.084-.115-.127-.147a.143.143 0 0 0-.075-.021c-.011 0-.041-.002-.113-.002-.058 0-.088.002-.096.002-.009 0-.007 0-.011.033-.002.02-.004.059-.004.17v.109h.029a.416.416 0 0 0 .096-.009.163.163 0 0 0 .086-.061c.008-.01.015-.056.019-.07a.053.053 0 0 1 .028-.006.04.04 0 0 1 .021.006c-.002.035-.008.099-.008.182l.004.167c-.008.006-.012.006-.023.006-.006 0-.018 0-.024-.002-.007-.072-.019-.121-.08-.146a.22.22 0 0 0-.093-.018.527.527 0 0 0-.057.004v.221c0 .051.004.082.012.1.005.013.025.043.05.046.012.002.034.006.078.006h.122a.25.25 0 0 0 .091-.013.46.46 0 0 0 .135-.182c.012-.004.018-.004.026-.004.007 0 .015.002.025.006v.223c0 .021-.014.023-.045.023M11.196 9.827c-.086.004-.16.051-.16.187l-.002.434c0 .018.008.141.008.188a.11.11 0 0 1-.035.013c-.004 0-.012-.006-.022-.013l-.596-.641.006.131.002.236c0 .018.004.063.008.096.004.053.02.07.043.09.029.025.078.033.113.037a.035.035 0 0 1 .006.019.049.049 0 0 1-.008.022h-.064l-.154-.002c-.038 0-.09.004-.127.004h-.028c-.002-.006-.002-.016-.002-.02s0-.011.004-.021c.043-.004.11-.024.135-.059a.271.271 0 0 0 .014-.101v-.303c0-.049-.002-.074-.004-.121-.002-.039-.01-.069-.03-.092-.002-.006-.021-.025-.041-.045-.019-.016-.066-.029-.095-.041a.071.071 0 0 1-.006-.019c0-.006.002-.016.006-.022h.021c.018 0 .11.004.18.004h.041a.08.08 0 0 1 .025.018l.442.482c.033.037.076.086.099.117v-.348a.936.936 0 0 0-.004-.097.228.228 0 0 0-.025-.09c-.014-.022-.096-.033-.139-.043-.004-.008-.004-.018-.004-.025 0-.004 0-.01.002-.018h.026c.041 0 .107.006.148.006.102 0 .133-.004.184-.004h.033c.004.008.004.016.004.021 0 .004 0 .014-.004.02M13.979 7.181c-.084.004-.16.051-.16.187v.434c0 .018.006.141.006.188a.103.103 0 0 1-.033.013c-.006 0-.012-.006-.024-.013l-.596-.641.008.131.002.236c0 .018.004.063.006.096.006.053.021.07.043.09.031.025.08.033.113.037a.035.035 0 0 1 .006.019.073.073 0 0 1-.006.022h-.066l-.154-.002c-.038 0-.088.004-.125.004h-.028a.088.088 0 0 1-.004-.02c0-.004 0-.011.006-.021.041-.004.108-.024.133-.059a.235.235 0 0 0 .014-.101v-.303c0-.049 0-.074-.002-.121a.158.158 0 0 0-.03-.092.359.359 0 0 0-.043-.045c-.017-.016-.066-.029-.095-.041a.225.225 0 0 1-.004-.019c0-.006.002-.016.004-.022h.023c.016 0 .108.004.178.004h.041a.127.127 0 0 1 .027.018l.442.482c.033.037.076.086.099.117v-.348c0-.046-.004-.08-.006-.097a.199.199 0 0 0-.025-.09c-.014-.022-.096-.033-.137-.043a.06.06 0 0 1-.006-.025c0-.004 0-.01.004-.018h.026c.041 0 .107.006.148.006.1 0 .133-.004.184-.004h.031a.052.052 0 0 1 .006.021.045.045 0 0 1-.006.02M14.857 7.878a.446.446 0 0 1-.301.127.44.44 0 0 1-.295-.121.43.43 0 0 1-.127-.322.436.436 0 0 1 .424-.446.46.46 0 0 1 .223.063c.13.084.207.223.207.375a.468.468 0 0 1-.131.324m-.137-.617a.197.197 0 0 0-.168-.088c-.07 0-.115.031-.156.088-.051.064-.078.168-.078.299 0 .129.027.23.074.295.043.062.092.093.166.093.09 0 .142-.042.183-.115a.535.535 0 0 0 .055-.271c0-.139-.027-.237-.076-.301M16.056 7.185a.17.17 0 0 0-.15.1l-.321.712s-.015.012-.025.012c-.01 0-.024-.012-.029-.033a4.939 4.939 0 0 0-.133-.32l-.102-.233a1.977 1.977 0 0 0-.076-.16c-.039-.064-.084-.07-.135-.078-.008-.008-.008-.016-.008-.021 0-.008 0-.012.006-.022h.053c.059 0 .109.004.154.004.053 0 .141-.006.202-.006h.033c.008.002.01.014.01.02 0 .004 0 .017-.004.023-.041.004-.127.002-.127.057 0 .011 0 .033.007.047l.209.5.178-.415a.27.27 0 0 0 .022-.109c0-.047-.034-.068-.121-.078a.071.071 0 0 1-.004-.02.1.1 0 0 1 .004-.025h.025c.039 0 .078.006.168.006.014 0 .076-.004.105-.004h.061c.004.008.006.012.006.02-.001.005-.002.017-.008.023M13.704 8.728l-.025-.002a.4.4 0 0 0-.063-.125c-.033-.043-.068-.072-.156-.082-.02-.002-.067-.002-.082-.002l-.002.373.002.256c.002.098.047.098.148.111.006.01.006.018.006.024 0 .008 0 .013-.004.021h-.037c-.06 0-.178-.004-.213-.004-.025 0-.154.006-.217.006-.003-.01-.005-.01-.005-.023l.003-.022c.135-.01.149-.035.155-.078.002-.027.002-.139.002-.252v-.308c0-.039 0-.079-.006-.104-.026 0-.11 0-.133.01-.068.025-.115.082-.168.185-.008.002-.017.002-.023.002a.029.029 0 0 1-.02-.007v-.218c0-.02.004-.026.026-.026l.091.002.309.002c.201 0 .353-.006.391-.006.021 0 .035 0 .041.008.003.004.001.02.001.031v.217c-.005.009-.013.011-.021.011M14.716 9.306h-.066c-.043 0-.092-.006-.143-.006-.08 0-.181.006-.22.006-.004-.004-.006-.012-.006-.022 0-.005.002-.013.004-.019.082-.004.115-.018.115-.051 0-.014 0-.041-.026-.109-.025-.063-.039-.09-.045-.106-.003-.006-.005-.009-.023-.009h-.266a.524.524 0 0 0-.062.162c-.006.021-.006.041-.006.048 0 .028.025.059.119.061a.04.04 0 0 1 .006.023c0 .006 0 .012-.002.02h-.023c-.063 0-.08-.004-.147-.004l-.181.004c-.002-.008-.004-.01-.004-.018 0-.005 0-.011.004-.021.05-.012.097-.025.121-.063.013-.019.058-.097.107-.218l.129-.315.059-.123c.017-.037.037-.074.044-.088a.057.057 0 0 1 .034-.015c.013 0 .031.007.037.017.008.016.017.031.019.041.049.117.088.221.149.365.031.073.047.12.08.196.023.047.037.084.06.127.032.064.082.064.133.078.002.006.008.012.008.019 0 .008-.004.012-.008.02m-.533-.67h-.002a1.241 1.241 0 0 0-.06.137 3.521 3.521 0 0 1-.069.162h.252c-.019-.051-.084-.206-.121-.299M16.021 9.306l-.342-.004h-.094a.076.076 0 0 1-.005-.021c0-.012.002-.014.007-.022.018-.002.063 0 .084-.008.036-.015.049-.05.049-.101v-.608h-.002l-.179.395c-.02.043-.043.09-.063.137a1.766 1.766 0 0 0-.074.191c-.006.016-.02.016-.027.016-.012 0-.02-.004-.026-.024-.023-.051-.039-.084-.047-.105l-.281-.619h-.006v.158l.006.394c0 .121.063.178.158.178a.068.068 0 0 1 .008.02.052.052 0 0 1-.006.021l-.043.002c-.012 0-.074-.006-.164-.006l-.119.002h-.057c-.002-.008-.004-.014-.004-.021l.004-.018c.024-.006.106-.025.123-.043.018-.018.034-.053.034-.137V8.65c-.002-.069-.01-.096-.043-.119-.014-.01-.067-.016-.112-.022a.056.056 0 0 1-.006-.023.07.07 0 0 1 .006-.024c.034 0 .092.004.151.004h.205a.05.05 0 0 1 .017.022l.252.57.045-.113c.039-.092.096-.231.176-.379l.051-.098.32-.006c.004.008.008.014.008.022a.042.042 0 0 1-.006.021c-.035.006-.096.006-.125.055-.01.016-.016.031-.016.1v.408c0 .156.039.172.057.183.01.006.059.012.086.012a.046.046 0 0 1 .006.022c-.001.011-.005.013-.006.021M13.685 10.052l-.025-.002a.4.4 0 0 0-.063-.125c-.033-.043-.068-.072-.156-.082-.02-.002-.067-.002-.082-.002l-.002.373.002.256c.002.098.047.098.148.111.006.01.006.018.006.024 0 .008 0 .013-.004.021h-.037c-.06 0-.178-.004-.213-.004-.025 0-.154.006-.217.006-.003-.01-.005-.01-.005-.023l.003-.022c.135-.01.149-.035.155-.078.002-.027.002-.139.002-.252v-.308c0-.039 0-.079-.006-.104-.026 0-.11 0-.133.01-.068.025-.115.082-.168.185-.008.002-.017.002-.023.002a.029.029 0 0 1-.02-.007v-.217c0-.02.004-.026.026-.026l.091.002.309.002c.201 0 .353-.006.391-.006.021 0 .035 0 .041.008.003.004.001.02.001.031v.217c-.005.008-.014.01-.021.01M14.733 9.831a.17.17 0 0 0-.15.1l-.321.712s-.015.012-.025.012c-.01 0-.024-.012-.029-.033a4.939 4.939 0 0 0-.133-.32l-.102-.233a1.977 1.977 0 0 0-.076-.16c-.039-.064-.084-.07-.135-.078-.008-.008-.008-.016-.008-.021 0-.008 0-.012.006-.022h.053c.059 0 .109.004.154.004.053 0 .141-.006.202-.006h.033c.008.002.01.014.01.02 0 .004 0 .017-.004.023-.041.004-.127.002-.127.057 0 .011 0 .033.007.047l.209.5.178-.415a.27.27 0 0 0 .022-.109c0-.047-.034-.068-.121-.078a.071.071 0 0 1-.004-.02.1.1 0 0 1 .004-.025h.025c.039 0 .078.006.168.006.014 0 .076-.004.105-.004h.061c.004.008.006.012.006.02 0 .005-.002.017-.008.023M16.038 10.63l-.34-.004h-.096c-.003-.008-.003-.017-.003-.021 0-.012 0-.014.005-.022.02-.002.063 0 .086-.008.034-.015.047-.05.047-.101v-.492l.002-.116h-.004l-.177.395c-.022.043-.043.09-.065.137a2.35 2.35 0 0 0-.074.191c-.004.016-.018.016-.027.016-.01 0-.018-.004-.026-.024l-.045-.105-.283-.619h-.006v.158l.006.394c.002.121.063.178.16.178a.053.053 0 0 1 .006.02c0 .005 0 .013-.004.021l-.045.002c-.012 0-.072-.006-.162-.006l-.119.002h-.057a.045.045 0 0 1-.006-.021c0-.002.002-.012.006-.018.022-.006.106-.025.123-.043.016-.018.032-.053.032-.137l.002-.199-.002-.234c-.002-.069-.008-.096-.043-.119-.014-.01-.067-.016-.11-.022a.04.04 0 0 1-.008-.023c0-.006.002-.014.008-.024.032 0 .092.004.149.004h.207c.006.006.011.01.015.022l.252.57.047-.113c.037-.092.096-.231.176-.379.016-.033.039-.076.051-.098l.318-.006c.004.008.01.014.01.022 0 .008-.004.013-.008.021-.033.006-.094.006-.123.055-.01.016-.018.031-.018.1v.408c0 .156.039.172.059.183a.273.273 0 0 0 .084.012.033.033 0 0 1 .008.022c0 .011-.004.013-.008.021M108.962 5.56a.345.345 0 0 0-.032-.152h-.25c-.546 0-.894.021-1.876.021-.338 0-.84-.021-.959-.021h-.283c-.033.021-.044.142-.044.185 0 .055.011.141.054.186.176.055.84.129 1.123.316.197.229.284.686.317 1.112.011.162.021.326.021.773v2.279c0 .262-.01.348-.021.469-.187-.207-.446-.6-.884-1.09l-3.642-4.035a.716.716 0 0 0-.163-.141c-.088 0-.24-.011-.326-.011-.699 0-1.963-.032-2.148-.032a.412.412 0 0 0-.044.151c0 .023.022.176.032.209.164.043.523.098.818.414.174.195.479.469.577.687a.96.96 0 0 1 .044.348c0 .566-.033 1.363-.033 2.125v2.215c0 .359-.031.642-.064.828-.229.24-.578.414-1.145.555a.64.64 0 0 0-.043.197c0 .033.01.143.032.152h.207c.218 0 .72-.033 1.046-.033.48 0 .807.033 1.254.033h.654c.043-.009.055-.142.055-.185a.51.51 0 0 0-.033-.174c-.381-.098-.938-.186-1.308-.676-.077-.164-.142-.971-.142-1.353 0-.348-.012-.826-.012-1.471 0-.861.012-1.613.022-1.994.065.076.142.174.196.238l5.037 5.66c.054.053.25.065.305.065.054 0 .087 0 .131-.022.021-.054.098-.23.098-.49 0-.316-.011-.645-.011-.807V7.543c0-1.363.644-1.744 1.396-1.777a.453.453 0 0 0 .044-.206M96.469 9.026c0 1.646-.458 3.098-1.079 3.609-.316.262-.709.393-1.156.393-.609 0-1.145-.24-1.449-.731-.414-.632-.644-1.81-.644-2.834 0-1.517.392-2.705 1.091-3.283.37-.304.751-.424 1.133-.424.59 0 1.157.284 1.483.752.414.568.621 1.386.621 2.518m1.972.207c0-1.525-.676-2.691-1.94-3.391-.676-.371-1.352-.556-2.071-.556-1.591 0-3.03.949-3.675 2.029a4.163 4.163 0 0 0-.631 2.201c0 1.254.61 2.486 1.559 3.195.72.524 1.537.784 2.486.784.578 0 1.123-.108 1.656-.315a3.92 3.92 0 0 0 1.516-1.037c.709-.772 1.1-1.766 1.1-2.91M88.858 7.86V5.636c0-.164-.064-.207-.229-.207-.327 0-2.049.043-3.793.043-1.353 0-2.476-.021-3.086-.021h-.808c-.141 0-.185.033-.185.185v2.082a.31.31 0 0 0 .175.045c.043 0 .196 0 .239-.023.49-.99.949-1.526 1.527-1.821.326-.031.969-.042 1.144-.042.012.119.022.501.032.959.012.785.012 1.123.012 2.976 0 1.604-.012 2.322-.032 2.496-.044.305.011.535-1.298.59-.033.076-.033.162-.033.25 0 .043 0 .131.012.174h.424c.404 0 1.354-.043 1.746-.043.316 0 1.33.033 1.994.033h.305c.033-.055.033-.174.033-.228a.41.41 0 0 0-.043-.198c-.121 0-.818.022-1.123-.207a3.33 3.33 0 0 1-.099-.818c-.011-1.176-.022-1.623-.022-2.408 0-1.014.012-1.701.012-3.588.152 0 .502-.01.828 0 .677.185 1.004.437 1.298.828.185.252.383.676.577 1.189.066.022.121.022.186.022.044-.001.186-.023.207-.044m-9.396 3.543c0-.152 0-.219-.012-.317-.054-.033-.076-.033-.164-.033-.076 0-.162 0-.24.022-.369.84-.904 1.494-1.198 1.668-.163.099-.414.121-.818.121h-.893a3.96 3.96 0 0 1-.72-.055c-.164-.033-.338-.295-.414-.469-.077-.185-.121-.185-.121-.687V9.267h.404c.108 0 .371.022.664.152.273.122.383.284.491.459.099.151.164.752.185.905.056.031.197.043.285.043a.387.387 0 0 0 .217-.055c0-.295-.064-1.09-.064-1.527 0-.545.075-1.297.107-1.688a.441.441 0 0 0-.217-.045c-.076 0-.219 0-.283.033-.033.153-.153.61-.176.643a1.319 1.319 0 0 1-.74.568 2.91 2.91 0 0 1-.633.086h-.229V7.828c0-1.047.021-1.385.032-1.582.011-.129.032-.272.044-.369.098-.012.152-.022.654-.022.631 0 .927.01 1.024.01.306.023.534.088.698.219.414.316.73.816 1.046 1.351a.849.849 0 0 0 .229.022c.066 0 .076-.022.164-.065 0-.666-.045-1.527-.066-1.799-.012-.109-.031-.142-.25-.142-.088 0-.502-.022-.938-.022-.621 0-.873.012-1.822.012-.512 0-1.569.01-2.017.01-.653 0-1.21-.022-1.493-.022h-.371a.356.356 0 0 0-.054.174c0 .055.021.176.054.219.131.043.644.033.797.119.152.131.293.186.392.709.022.23.033.861.033 1.363v2.246c0 .457-.011 1.123-.022 1.395-.021.426-.173.937-.238 1.037-.1.076-.547.141-.982.162a.663.663 0 0 0-.055.24c0 .065.022.143.055.198h.359c.35 0 1.636-.034 1.931-.034.272 0 .796.022 1.428.022.349 0 1.374.066 3.576.066.088 0 .185.01.295-.023.032-.055.032-.076.044-.174.022-.219.022-.861.022-1.745m-9.223.382a.363.363 0 0 0-.371-.262c-.022 0-.055.012-.076.012-.655.927-1.375 1.275-2.192 1.275-1.134 0-1.94-.764-2.201-1.439-.144-.36-.339-1.145-.339-1.985 0-.795.12-1.439.327-1.908.479-1.264 1.178-1.656 2.028-1.656.709 0 1.297.404 1.744.98.186.252.381.742.555 1.321.045.009.143.031.24.031a.532.532 0 0 0 .262-.098c-.01-.119-.119-.959-.119-1.22 0-.327.087-.862.087-1.069-.065-.066-.283-.109-.425-.119-.164.119-.219.26-.371.447-.61-.437-1.178-.775-2.42-.775-1.145 0-2.051.392-2.736 1.08-.753.74-1.167 1.766-1.167 3.074 0 1.395.589 2.541 1.537 3.26.601.435 1.483.73 2.54.73 1.33 0 2.301-.502 2.791-1.166.195-.263.217-.328.306-.513M61.752 5.56a.36.36 0 0 0-.033-.152h-.252c-.545 0-.893.021-1.875.021-.338 0-.84-.021-.959-.021h-.283c-.033.021-.045.142-.045.185 0 .055.012.141.057.186.174.055.838.129 1.123.316.195.229.281.686.314 1.112.012.162.023.326.023.773v2.279c0 .262-.012.348-.023.469-.184-.207-.447-.6-.883-1.09l-3.637-4.035a.723.723 0 0 0-.164-.141c-.087 0-.24-.011-.326-.011-.699 0-1.963-.032-2.148-.032a.392.392 0 0 0-.043.151c0 .023.021.176.031.209.164.043.524.098.818.414.176.195.481.469.578.687.034.077.044.196.044.348 0 .566-.032 1.363-.032 2.125v2.215c0 .359-.033.642-.066.828-.229.24-.577.414-1.145.555a.671.671 0 0 0-.043.197c0 .033.01.143.032.152h.208c.217 0 .719-.033 1.046-.033.48 0 .806.033 1.253.033h.65c.043-.009.055-.142.055-.185a.534.534 0 0 0-.032-.174c-.379-.098-.934-.186-1.305-.676-.075-.164-.141-.971-.141-1.353 0-.348-.012-.826-.012-1.471 0-.861.012-1.613.023-1.994.065.076.141.174.196.238l5.033 5.66c.055.053.25.065.305.065s.088 0 .131-.022c.021-.054.098-.23.098-.49 0-.316-.012-.645-.012-.807V7.543c0-1.363.645-1.744 1.396-1.777a.468.468 0 0 0 .045-.206m-10.779 7.554a.715.715 0 0 0-.033-.217 8.162 8.162 0 0 1-.806-.098c-.175-.209-.296-.447-.371-.84a146.13 146.13 0 0 1-.023-2.617v-2.68c0-.295.12-.524.198-.59.207-.195.621-.238.97-.283a.667.667 0 0 0 .032-.207.325.325 0 0 0-.054-.174h-.317c-.458 0-1.526.054-1.897.054-.229 0-1.297-.033-1.776-.043h-.24c-.033.043-.054.086-.054.184 0 .045.009.154.021.207.535.045.774.098.851.154.131.098.315.338.36.926.01.207.021.654.031 1.658.012.545.023 1.307.023 1.94 0 .316-.023 1.025-.033 1.406-.021.262-.077.512-.152.654-.131.11-.263.305-1.058.36a.821.821 0 0 0-.034.23c0 .086.023.129.023.184h.185c.437 0 1.527-.055 2.093-.055.164 0 1.297.033 1.657.033h.361a.438.438 0 0 0 .043-.186m-8.743-5.69c0 .676-.458 1.45-.992 1.58-.218.055-.492.088-.894.088-.11 0-.274 0-.405-.023l-.01-.926V6.138c0-.131.032-.207.065-.24.032-.033.23-.064.459-.064.85 0 1.221.074 1.526.587.173.294.251.633.251 1.003m3.161 5.702a.536.536 0 0 0-.055-.229c-.108 0-.555-.021-.719-.143a2.25 2.25 0 0 1-.185-.273c-.143-.5-.305-.838-.469-1.252-.23-.545-.545-1.059-.807-1.299-.098-.086-.436-.228-.818-.359a12.047 12.047 0 0 1-.446-.174c.163-.033.239-.045.446-.064.808-.1.992-.241 1.199-.405.437-.328.676-.828.676-1.418 0-.883-.566-1.732-1.362-1.984-.263-.076-.73-.119-1.308-.119-.818 0-1.963.076-2.508.076-.164 0-1.113-.022-1.494-.022-.164 0-.578-.021-.643-.021a.626.626 0 0 0-.054.207c0 .043.011.152.021.195.186.022.524.065.699.098.26.197.348.35.457.59.055.349.065 1.242.065 2.779 0 1.113.012 2.399-.043 2.815-.032.271-.131.597-.447.728a5.602 5.602 0 0 1-.621.076.521.521 0 0 0-.055.219.66.66 0 0 0 .043.174c.154 0 1.822-.031 2.17-.031.697 0 1.287.031 1.908.031a.444.444 0 0 0 .043-.164.672.672 0 0 0-.043-.229c-.219-.021-.49-.086-.61-.109-.273-.129-.47-.391-.47-.774l-.01-2.517c.086-.012.196-.012.283-.012.141 0 .305.024.578.174.403.23.6.395.862.797.349.545.578 1.547.686 2.344.033.228.12.425.328.447.086.012.665.033 1.079.033h1.559a.298.298 0 0 0 .065-.185M33.552 7.478c0 .557-.197 1.047-.556 1.363-.229.186-.59.295-1.135.295-.228 0-.404-.009-.468-.021-.087-.012-.143-.022-.143-.078l.012-3.194c.131-.009.316-.054.633-.054.741 0 1.199.185 1.417.644.151.293.24.664.24 1.045m1.95.044c0-.818-.469-1.582-1.166-1.896-.359-.155-.992-.252-1.951-.252-.84 0-2.149.066-2.725.066-.404 0-1.014-.045-1.352-.045a.39.39 0 0 0-.056.174c0 .045 0 .164.033.219.207.066.545.119.764.175.184.163.228.305.294.622.032.38.055.861.055 1.689 0 2.301-.011 3.51-.044 3.771-.043.329-.261.666-.622.774-.164.033-.404.088-.631.109a1.14 1.14 0 0 0-.023.229c0 .088.012.099.032.154.349 0 1.374-.045 1.767-.045.971 0 1.963.045 2.365.045h.274c.033-.045.033-.121.033-.174 0-.066 0-.154-.023-.197-.327-.043-.817-.109-1.024-.35-.109-.129-.219-.316-.219-.642l-.033-2.399c.654.043 1.353.065 1.734.065.501 0 .926-.086 1.264-.196.775-.292 1.254-1.058 1.254-1.896M109.137 17.722c0-.067-.043-.089-.065-.132-.447 0-1.035.033-1.265.033-.556 0-1.231-.045-1.526-.045-.033.066-.044.076-.044.131 0 .056.011.098.022.131.316.064.773.143.861.295a.79.79 0 0 1 .099.424c0 .131-.011.262-.066.404-.098.271-.305.697-.599 1.297-.502 1.014-.818 1.646-.993 1.896-.283-.479-.915-1.742-1.067-2.07l-.611-1.33a1.02 1.02 0 0 1-.043-.295c0-.141.021-.239.043-.283.099-.195.437-.217.895-.273a.489.489 0 0 0 .032-.162c0-.076-.032-.055-.065-.109h-.195c-.731 0-.514.033-1.768.033-.533 0-1.177-.033-1.264-.033-.044.076-.066.089-.066.164 0 .043.012.076.045.131.729.174.947.305 1.024.447l1.908 3.738c.185.35.294.621.349.818.076.305.088.752.088 1.307 0 .471-.164.721-.35.842-.076.043-.622.119-.872.142-.044.075-.056.097-.056.151s.022.088.033.131c.557 0 1.136-.012 1.461-.012.229 0 .578.012 1.222.023.37.01.653.021.85.021.022-.045.056-.088.056-.143a.242.242 0 0 0-.045-.141c-.349-.043-.838-.109-.947-.219-.176-.186-.262-.271-.284-.697l-.087-1.637c-.012-.119.033-.229.044-.26a1.7 1.7 0 0 1 .118-.307l1.68-3.324c.152-.283.48-.6.698-.73.153-.098.491-.164.709-.219.02-.053.041-.095.041-.138m-8.808 2.245v-2.115c0-.164-.066-.207-.229-.207-.327 0-1.832.043-3.576.043-1.352 0-2.257-.021-2.868-.021h-.806c-.142 0-.187.031-.187.186v1.973a.194.194 0 0 0 .131.043c.045 0 .088 0 .132-.021.425-.95.643-1.45 1.374-1.821.326-.033 1.471-.043 1.646-.043.011.119.022.5.033.959.011.785.011 1.209.011 3.064 0 1.602-.011 2.43-.033 2.604-.043.307.012.535-1.297.59-.033.076-.033.098-.033.186 0 .043 0 .087.012.131h.425c.403 0 .937-.044 1.33-.044.315 0 .916.032 1.581.032h.305c.033-.055.033-.109.033-.162a.25.25 0 0 0-.044-.154c-.12 0-.817.023-1.123-.207a3.346 3.346 0 0 1-.098-.816c-.011-1.178-.022-1.733-.022-2.52 0-1.014.012-1.787.012-3.673.152 0 .959-.011 1.287 0 .674.185.937.435 1.23.827.262.35.328.666.49 1.189a.444.444 0 0 0 .164.021.216.216 0 0 0 .12-.044m-9.06 5.385a.353.353 0 0 0-.033-.152 8.327 8.327 0 0 1-.807-.098c-.173-.207-.294-.447-.37-.84-.011-.523-.022-1.711-.022-2.727v-2.768c0-.295.121-.525.196-.59.207-.195.622-.24.97-.283a.33.33 0 0 0 .033-.141.187.187 0 0 0-.054-.131h-.315c-.459 0-1.113.053-1.484.053-.229 0-.883-.031-1.362-.043h-.24c-.032.043-.054.043-.054.141 0 .045.011.088.021.143.535.045.774.099.851.152.131.1.315.338.36.928.011.207.021.764.031 1.766.012.545.022 1.287.022 1.919 0 .317-.022 1.134-.033 1.515-.021.262-.076.514-.151.654-.132.109-.263.305-1.059.361a.445.445 0 0 0-.032.162c0 .088.021.088.021.143h.187c.438 0 1.112-.055 1.679-.055.164 0 .884.031 1.244.031h.358a.27.27 0 0 0 .043-.14m-5.387-2.005c0-.874-.391-1.472-1.231-1.919-.229-.131-.632-.273-1.21-.438-.665-.185-1.221-.402-1.581-.6-.239-.131-.644-.49-.644-1.188s.71-1.275 1.537-1.275c.654 0 1.179.326 1.494.762.273.383.371.557.676 1.244a.42.42 0 0 0 .109.021.357.357 0 0 0 .24-.108c-.033-.274-.087-.655-.087-.981 0-.283.065-.654.099-.851-.089-.132-.187-.153-.328-.153-.152.1-.295.25-.426.393-.719-.578-1.308-.676-1.853-.676-1.34 0-2.3.895-2.3 2.082 0 .404.141.797.402 1.199.24.338.59.6 1.059.797.315.129 1.732.557 1.929.633.872.338 1.2.631 1.2 1.404 0 .383-.164.721-.48 1.102-.283.35-.73.514-1.21.514-.513 0-1.396-.219-1.832-.807-.262-.338-.632-1.047-.741-1.473-.076-.021-.076-.021-.152-.021a.385.385 0 0 0-.207.064c0 .143.044.861.044 1.08 0 .533-.099.795-.12.971.032.109.218.219.35.219.228-.197.467-.35.545-.35.064 0 .162.031.26.098.709.459 1.299.545 1.822.545 1.536 0 2.636-.774 2.636-2.288m-9.648-3.763c0 .697-.556 1.482-1.198 1.625-.263.056-.645.088-1.135.088-.131 0-.502 0-.665-.023l-.011-.959v-2.061c0-.143.033-.219.076-.25.044-.032.49-.066.763-.066 1.024 0 1.494.098 1.865.633.208.294.305.632.305 1.013m2.289 5.777a.288.288 0 0 0-.054-.162c-.109 0-.557-.021-.721-.143a2.391 2.391 0 0 1-.185-.271 14.085 14.085 0 0 0-.458-1.363c-.229-.545-.545-1.059-.807-1.297-.098-.088-.403-.23-.785-.359a13.876 13.876 0 0 1-.447-.176c.164-.031.24-.043.447-.064.709-.088.949-.24 1.157-.404a1.73 1.73 0 0 0 .718-1.406c0-.883-.566-1.723-1.362-1.973-.262-.076-.73-.119-1.309-.119-.817 0-1.429.074-1.974.074-.162 0-.697-.021-1.078-.021-.164 0-.578-.021-.644-.021-.032.076-.055.1-.055.143s.011.107.022.152c.185.022.522.065.697.098.262.195.35.35.458.59.054.348.066 1.33.066 2.867 0 1.111.01 2.508-.046 2.922-.031.271-.129.598-.446.729-.142.023-.403.067-.621.078a.285.285 0 0 0-.056.152c0 .033.022.076.045.131.152 0 1.406-.033 1.755-.033.698 0 .872.033 1.494.033.021-.044.044-.076.044-.121 0-.076-.022-.119-.044-.162-.218-.021-.491-.088-.611-.109-.272-.131-.468-.393-.468-.775l-.012-2.725c.088-.012.403-.012.49-.012.295 0 .59.023.872.154.415.184.808.479 1.069.883.349.545.578 1.58.688 2.375.031.23.119.426.326.448.087.011.219.032.633.032h1.133c.049-.045.069-.088.069-.145m-9.147-1.656c0-.152 0-.219-.01-.315-.055-.034-.076-.034-.164-.034-.076 0-.064 0-.142.023-.24.795-.653 1.386-1.123 1.668-.163.098-.458.119-.926.119H65.79c-.381-.012-.621-.033-.72-.055-.163-.031-.338-.295-.413-.469-.078-.186-.121-.25-.121-.752v-2.486h.35c.349 0 .632.023.926.154.273.119.48.293.589.467.099.155.132.754.153.906.054.033.087.043.174.043s.098-.01.175-.055c0-.293-.064-1.09-.064-1.525 0-.545.075-1.211.107-1.604-.043-.021-.064-.043-.174-.043-.077 0-.108 0-.175.031-.032.154-.12.611-.141.645-.164.271-.547.49-.84.578-.197.055-.48.088-.895.088h-.174v-1.07c0-1.045.021-1.471.031-1.668.012-.13.033-.271.045-.369.098-.011.414-.021.916-.021.632 0 1.101.011 1.199.011.305.021.533.087.697.218.534.414.676.688.971 1.352.065.021.075.021.131.021.064 0 .076-.021.162-.064 0-.666-.043-1.418-.064-1.691-.012-.109-.033-.141-.251-.141-.087 0-.501-.021-.937-.021-.623 0-.873.01-1.822.01-.512 0-1.416.012-1.863.012-.654 0-.797-.021-1.081-.021h-.373c-.033.043-.056.086-.056.129 0 .057.022.109.056.154.132.044.647.033.8.119.152.131.294.164.393.688.021.229.033.971.033 1.473v2.244c0 .457-.012 1.211-.022 1.482-.022.426-.174.961-.24 1.059-.099.076-.546.141-.985.162-.033.067-.056.11-.056.176 0 .064.022.098.056.152h.362c.351 0 1.224-.033 1.517-.033.273 0 .644.022 1.276.022.349 0 1.373.065 3.576.065.087 0 .185.012.294-.021.033-.055.033-.076.044-.174.02-.221.02-.756.02-1.639m-8.071-5.951c0-.045-.012-.109-.055-.121h-.37c-.263 0-.677.021-.862.021-.883 0-1.199-.055-1.33-.055h-.195c-.023.055-.057.088-.057.143 0 .043.023.076.023.119.271.033.512.088.752.164.131.131.273.393.273.688 0 .107-.109.621-.264.992l-1.754 4.316-2.154-5.463c.032-.26.174-.512.357-.609.186-.021.412-.088.707-.088a.405.405 0 0 0 .043-.152c0-.043-.01-.109-.055-.119h-.273c-.334 0-.846.043-1.423.043-.25 0-.741-.021-1.221-.021h-.425c-.022.043-.043.064-.043.131 0 .064.011.088.032.131.305.076.6.195.916.369.207.307.655 1.408.895 1.984l.902 2.182c.75 1.811 1.197 3.02 1.252 3.227.055.033 0 .064.098.064s.088-.019.109-.074l2.812-6.76c.098-.24.25-.469.393-.623.174-.195.533-.271.871-.348.012-.043.046-.088.046-.141m-9.548 7.598a.326.326 0 0 0-.032-.152 8.217 8.217 0 0 1-.807-.098c-.174-.207-.293-.447-.371-.84-.01-.523-.021-1.711-.021-2.727v-2.768c0-.295.119-.525.196-.59.207-.195.621-.24.97-.283a.33.33 0 0 0 .033-.141.183.183 0 0 0-.055-.131h-.316c-.458 0-1.112.053-1.483.053-.228 0-.883-.031-1.362-.043h-.24c-.033.043-.055.043-.055.141 0 .045.011.088.022.143.534.045.774.099.85.152.131.1.317.338.361.928.01.207.021.764.032 1.766.011.545.023 1.287.023 1.919 0 .317-.023 1.134-.034 1.515-.021.262-.076.514-.153.654-.13.109-.261.305-1.057.361a.427.427 0 0 0-.033.162c0 .088.023.088.023.143h.184c.437 0 1.113-.055 1.679-.055.164 0 .883.031 1.243.031h.36a.238.238 0 0 0 .043-.14m-4.926-7.622a.175.175 0 0 0-.033-.107h-.25c-.545 0-.786.021-1.766.021-.339 0-.84-.021-.959-.021h-.285c-.032.021-.043.099-.043.142 0 .054.011.075.054.118.175.055.84.132 1.123.316.196.231.284.688.317 1.113.01.162.021.327.021.773v3.238c0 .262-.011.35-.021.469-.186-.207-.502-.611-.927-1.112l-4.165-4.862a.752.752 0 0 0-.164-.143c-.087 0-.195-.01-.283-.01-.697 0-1.308-.033-1.494-.033-.021.043-.032.064-.032.109 0 .022.011.109.021.141.164.045.644.1.841.307.174.195.435.424.533.643a.954.954 0 0 1 .045.35c0 .566-.033 1.602-.033 2.365v2.322c0 .359-.033.643-.066.828-.229.24-.578.414-1.145.557-.022.055-.043.076-.043.131 0 .033.01.098.032.107h.207c.218 0 .72-.031 1.048-.031.478 0 .696.031 1.142.031h.657c.043-.01.052-.098.052-.141s-.009-.066-.032-.109c-.381-.098-.936-.186-1.307-.676-.077-.164-.143-.992-.143-1.373 0-.35-.011-.916-.011-1.559 0-.861.011-2.051.023-2.432l.239.283 5.168 6.051c.054.055.076.064.132.064.053 0 .02 0 .064-.021.022-.055.055-.229.055-.49 0-.316-.011-.643-.011-.807V19.65c0-1.363.644-1.746 1.396-1.777a.255.255 0 0 0 .043-.143m-10.097.055a.225.225 0 0 0-.054-.141h-.315c-.339 0-.797.021-1.19.021-.435 0-.925-.021-1.243-.021h-.391c-.034.064-.045.086-.045.141 0 .045.011.088.033.143.045 0 .84.01.981.207.12.164.382.566.425.807.022.109.088.557.088 1.199 0 .926 0 1.547-.011 1.875-.022.611-.088 1.09-.197 1.449-.305.949-1.013 1.418-2.136 1.418-.48 0-.894-.098-1.276-.273-.709-.348-1.047-1.013-1.057-1.373l-.055-3.27-.01-1.33c0-.252.315-.48.424-.611.088-.043.567-.088.84-.109.033-.064.054-.098.054-.151a.182.182 0 0 0-.076-.142l-.414.01c-.404.012-.937.021-1.275.021-.524 0-.928-.01-1.254-.01h-.457c-.045.031-.056.098-.056.152s.011.098.044.131c.348.044.577.076.73.107a.914.914 0 0 1 .382.48c.011.143.032.49.032 1.178v2.617c0 .676.034 1.154.11 1.461a2.15 2.15 0 0 0 .948 1.34c.534.35 1.199.523 1.995.523.731 0 1.352-.152 1.875-.447.545-.293.883-.773 1.079-1.449.109-.402.175-.84.175-1.297v-2.093c0-.394.022-.884.022-1.081.011-.587.164-.938.328-1.199.174-.054.326-.086.904-.152.022-.043.043-.076.043-.131"/><path fill="none" d="M-17-10.875h144v54H-17z"/></svg>