<svg xmlns="http://www.w3.org/2000/svg" width="32" height="32" viewBox="0 0 32 32"><path fill="#55ACEE" d="M26.667 0H5.334C2.4 0 0 2.4 0 5.334v21.332C0 29.602 2.4 32 5.334 32h21.333A5.346 5.346 0 0 0 32 26.666V5.334C32 2.4 29.602 0 26.667 0zm-2.715 11.921c.008.176.012.353.012.531 0 5.422-4.127 11.675-11.675 11.675-2.317 0-4.474-.679-6.29-1.844a8.225 8.225 0 0 0 6.075-1.699 4.105 4.105 0 0 1-3.833-2.849 4.096 4.096 0 0 0 1.852-.071 4.105 4.105 0 0 1-3.291-4.023v-.052a4.09 4.09 0 0 0 1.858.513 4.101 4.101 0 0 1-1.269-5.478 11.65 11.65 0 0 0 8.457 4.287 4.103 4.103 0 0 1 6.992-3.742 8.198 8.198 0 0 0 2.606-.996 4.123 4.123 0 0 1-1.805 2.271c.83-.1 1.621-.32 2.357-.646a8.26 8.26 0 0 1-2.046 2.123z"/></svg>